<?xml version="1.0" encoding="UTF-8"?>
<svg width="443px" height="700px" viewBox="0 0 443 700" version="1.1" xmlns="http://www.w3.org/2000/svg" xmlns:xlink="http://www.w3.org/1999/xlink">
    <title>Shape</title>
    <g id="Page-1" stroke="none" stroke-width="1" fill="none" fill-rule="evenodd">
        <g id="White_01" transform="translate(0.56, -0)" fill="#FFFFFF" fill-rule="nonzero">
            <path d="M441.65,22.4100022 C441.708332,16.4158796 439.333625,10.6542808 435.068637,6.44206274 C430.803648,2.22984465 425.012932,-0.0729491389 419.02,0.0600022176 C286.88,0.0600022176 154.74,0.0400022176 22.6,0 C16.6087593,0 10.8618505,2.37481676 6.62352823,6.60938831 C2.38520595,10.8439599 0,16.5887615 0,22.5800022 C0.0866666667,131.673336 0.103333333,240.763336 0.05,349.850002 C0.05,459.070002 0.05,568.293336 0.05,677.520002 C0,678.577907 0.0379702005,679.638026 0.16,680.690002 C2.09,692.370002 11.08,700.000278 22.95,700.000278 C154.83,700.000278 286.706667,700.000278 418.58,700.000278 C420.429582,700.008716 422.27435,699.810822 424.08,699.410002 C434.98,696.900002 441.65,688.180002 441.65,676.580002 C441.65,459.860002 441.65,243.136669 441.65,26.4100022 C441.65,25.0600022 441.67,23.7400022 441.65,22.4100022 Z M437.24,375.240002 L437.24,677.490002 C437.389311,685.658628 431.925218,692.866932 424.02,694.930002 C422.561403,695.338656 421.054732,695.550532 419.54,695.560002 C287.06,695.560002 154.58,695.560002 22.1,695.560002 C11.1,695.560002 4.4,686.180002 4.4,677.720002 C4.49333333,568.500002 4.50666667,459.260002 4.44,350.000002 C4.37333333,240.740002 4.37333333,131.590002 4.44,22.5500022 C4.44,15.0700022 9.35,6.55000222 18.85,4.69000222 C19.9609156,4.51460135 21.0858898,4.44429047 22.21,4.48000222 C154.49,4.48000222 286.77,4.45000222 419.05,4.38997722 C423.906639,4.38196757 428.565945,6.31112985 431.995416,9.74998612 C435.424886,13.1888424 437.341308,17.8534038 437.320176,22.7100022 C437.246667,140.236669 437.22,257.746669 437.24,375.240002 Z M156.3,195.110002 C147.24,181.370002 135.87,170.500002 120.25,164.580002 C119.964998,164.452323 119.690773,164.301834 119.43,164.130002 C118.43,154.530002 115.17,150.300002 108.09,149.220002 C102.05115,148.323009 96.1495943,151.539071 93.63,157.100002 C91.3999608,162.350454 93.0234719,168.444802 97.57,171.890002 C103.713951,176.514871 112.438153,175.318307 117.11,169.210002 C120.422584,172.473527 123.026787,176.384938 124.76,180.700002 C126.44,184.880002 128.12,189.060002 129.58,193.320002 C133.94,206.040002 134.75,219.160002 133,232.320002 C132,239.660002 130,246.850002 128.61,254.130002 C125.251385,271.067193 125.088589,288.482986 128.13,305.480002 C129.333101,312.927396 132.783946,319.829085 138.02,325.260002 C140.02,327.260002 141.86,329.440002 143.84,331.600002 C144.22,335.600002 144.61,339.760002 144.99,343.830002 C142.61,346.660002 142.71,347.580002 145.69,350.190002 C145.81,351.520002 145.95,352.960002 146.07,354.310002 C142.07,357.440002 142.65,361.620002 147.12,363.090002 C147.29,364.540002 147.57,366.040002 147.61,367.560002 C147.65,369.080002 147.48,370.840002 147.4,372.620002 C146.546579,372.770003 145.711775,373.011393 144.91,373.340002 C144.36,373.640002 143.66,374.340002 143.68,374.820002 C143.7,375.300002 144.51,375.820002 145.09,376.100002 C145.780936,376.313752 146.497195,376.43481 147.22,376.460002 L147.59,382.540002 L149.82,382.670002 C155.43,412.030002 161.82,440.940002 178.91,466.180002 L177.33,466.990002 C176.88,469.330002 177.08,469.470002 182.09,470.470002 C183.69,471.980002 185.09,473.310002 186.49,474.610002 C187.89,475.910002 189.4,477.190002 191.33,478.890002 C189.92,478.890002 189.1,478.890002 188.33,478.890002 C187.33,478.890002 186.02,478.740002 186.08,480.080002 C186.08,480.760002 187.14,481.730002 187.89,481.950002 C188.985956,482.176152 190.119695,482.1419 191.2,481.850002 C192.291501,481.553982 193.358104,481.172813 194.39,480.710002 L200.81,483.340002 C204.36,489.150002 208.49,489.270002 212.54,483.610002 L216.62,482.490002 C221.01,485.620002 225.21,485.290002 225.67,481.410002 L219.84,481.410002 L231.39,472.320002 C233.29,472.380002 235.55,472.670002 236.8,470.400002 C237.07,469.910002 236.71,469.080002 236.63,468.330002 L234.16,468.660002 C241.11,460.010002 246.16,450.550002 250.39,440.830002 C253.19,439.470002 253.79,438.460002 253.63,436.080002 C253.33,431.350002 255.23,427.340002 257.82,423.540002 C258.295753,422.634593 258.578382,421.640285 258.65,420.620002 C258.83,419.540002 258.65,418.390002 258.91,417.340002 C261.7,405.760002 264.91,394.270002 267.28,382.600002 C269.67,370.750002 271.23,358.730002 272.96,347.980002 C272.38,386.980002 271.77,427.270002 271.17,467.520002 C267.86,464.170002 264.39,462.100002 259.29,462.060002 C260.45,469.490002 266.06,472.320002 270.85,476.060002 L270.85,480.260002 C266.45,483.720002 266.41,487.170002 270.6,489.800002 L270.6,493.460002 C263.86,498.360002 263.7,504.750002 270.25,508.130002 L270.25,511.130002 C266.44,515.320002 266.43,517.050002 270.25,520.730002 C270.140241,522.552958 270.170329,524.381644 270.34,526.200002 C270.46,526.990002 271.51,528.200002 272.18,528.200002 C272.85,528.200002 273.94,527.200002 274.25,526.390002 C274.532756,525.300312 274.604042,524.166527 274.46,523.050002 C274.288296,521.407603 274.710448,519.758015 275.65,518.400002 C276.78059,516.934817 276.813137,514.900607 275.73,513.400002 C274.579396,511.625077 274.217242,509.452154 274.73,507.400002 C281.07,503.500002 279.63,496.930002 274.91,493.500002 L274.91,489.200002 C278.19,486.430002 278.31,483.290002 275,480.200002 L275,475.450002 C276.8,474.330002 278.65,473.180002 280.49,472.020002 C283.285588,470.452539 285.517517,468.045694 286.87,465.140002 C287.150532,464.091831 287.308257,463.0146 287.34,461.930002 C281.7,461.550002 278.18,464.130002 275.07,468.390002 C275.18,416.590002 277.07,365.390002 276.27,313.650002 L284.27,318.860002 C284.15,320.180002 284,321.160002 283.98,322.140002 C283.81,331.480002 283.67,340.810002 283.5,350.140002 C283.576864,350.85441 283.448518,351.575927 283.13,352.220002 C281.69,354.090002 281.87,355.740002 283.4,357.220002 L283.4,364.620002 C280.96,367.290002 281.16,368.400002 283.31,371.020002 L283.31,375.880002 C279.07,378.780002 279.13,381.750002 283.45,385.030002 L283.45,391.670002 C281.82,393.920002 281.65,395.430002 282.99,396.670002 C283.481528,397.181351 284.156319,397.476112 284.865477,397.489245 C285.574635,397.502377 286.259876,397.232802 286.77,396.740002 C288.19,395.600002 288.15,394.120002 286.77,392.030002 L286.77,384.410002 C290.72,379.710002 290.77,377.230002 286.77,375.470002 L286.77,370.880002 C288.77,368.030002 288.77,367.230002 286.31,363.940002 C286.69,361.310002 287.16,358.160002 287.56,355.000002 C287.602236,354.290569 287.534776,353.578866 287.36,352.890002 C286.997663,351.795613 286.73329,350.671191 286.57,349.530002 C286.41,342.840002 286.35,336.150002 286.28,329.460002 C286.28,326.660002 286.28,323.860002 286.28,320.910002 C286.807144,321.31435 287.305051,321.755449 287.77,322.230002 C290.12,324.920002 292.5,327.590002 294.72,330.380002 C295.97,331.960002 297.25,332.440002 298.97,331.320002 C299.760589,330.850797 300.498198,330.29759 301.17,329.670002 C302.81,327.940002 304.33,326.100002 305.96,324.360002 C310.071705,319.904389 312.937777,314.444711 314.27,308.530002 C317.79,293.630002 317.8,278.530002 315.91,263.530002 C314.71,254.020002 312.37,244.670002 310.57,235.240002 C310.15,233.030002 309.75,230.810002 309.57,228.570002 C308.05,211.150002 311.71,194.730002 319.13,179.030002 C320.802388,175.509264 323.049841,172.291857 325.78,169.510002 C331.78,174.090002 332.37,174.420002 335.21,174.740002 C338.866813,175.263324 342.580154,174.289924 345.51,172.040002 C350.058615,168.59204 351.685612,162.49595 349.46,157.240002 C346.940406,151.679071 341.03885,148.463009 335,149.360002 C327.92,150.440002 324.68,154.690002 323.65,164.360002 C322.99,164.620002 322.24,164.860002 321.54,165.210002 C318.06,166.950002 314.36,168.390002 311.14,170.530002 C293.14,182.530002 281.4,199.170002 275.67,219.930002 C272.67,230.870002 269.58,241.760002 264.44,251.930002 C257.9,264.840002 248.95,275.430002 234.44,279.670002 C229.589958,281.216195 224.53054,282.005464 219.44,282.010002 C212.529168,281.769328 205.778312,279.865505 199.76,276.460002 C192.270385,272.487739 186.099269,266.420865 182,259.000002 C176.059656,248.109628 171.59385,236.477683 168.72,224.410002 C166.350252,213.984103 162.144739,204.062885 156.3,195.110002 Z M109.19,159.110002 L106.76,159.110002 C105.12,159.110002 103.44,159.310002 102.84,161.110002 C102.24,162.910002 103.6,163.910002 104.77,164.910002 C105.237302,165.270762 105.724757,165.604635 106.23,165.910002 L103.88,166.690002 C103.37,168.590002 104.53,169.120002 105.76,169.050002 C107.89,168.940002 110.02,168.500002 111.98,168.220002 C110.35,170.810002 105.56,171.760002 101.86,170.020002 C97.8538481,168.150599 95.8300278,163.621502 97.11,159.390002 C98.5302245,155.014813 102.883683,152.288107 107.44,152.920002 C111.99,153.660002 115.32,157.280002 115.14,161.700002 C113.14,158.970002 112.34,155.370002 108.57,155.310002 L107.87,155.840002 C108.3,156.860002 108.7,157.890002 109.19,159.120002 L109.19,159.110002 Z M268.44,470.490002 L264.44,466.790002 L265.17,466.000002 C266.376667,467.333336 267.593333,468.686669 268.82,470.060002 L268.44,470.490002 Z M283.78,464.490002 C282.21,467.660002 279.57,469.260002 276.72,470.860002 C277.947681,467.741156 280.557436,465.371677 283.78,464.450002 L283.78,464.490002 Z M333.78,153.370002 C338.302248,151.840872 343.255197,153.920682 345.33,158.220002 C347.239707,162.2128 345.91758,167.002314 342.23,169.450002 C338.53,171.920002 333.5,171.360002 330.86,168.330002 C333.02,168.600002 335.21,169.010002 337.42,169.090002 C338.61,169.090002 339.62,168.480002 339,166.750002 L336.8,166.040002 C338.3,164.650002 340.93,163.700002 340.02,161.160002 C339.02,158.220002 336.02,159.490002 333.77,159.160002 C334.2,158.010002 334.61,156.940002 335.02,155.860002 C334.78,155.700002 334.55,155.530002 334.32,155.360002 C330.53,155.430002 329.77,159.070002 327.92,161.550002 C327.34,158.260002 330.06,154.570002 333.79,153.330002 L333.78,153.370002 Z M154.51,199.450002 C161.87,209.540002 164.24,221.880002 167.51,234.570002 C162.678679,231.973686 158.415138,228.437735 154.97,224.170002 C154.38,221.700002 153.97,219.890002 153.63,218.600002 C153.93,211.880002 154.22,205.580002 154.51,199.450002 Z M151.51,226.450002 L164.51,237.300002 L167.64,242.470002 C166,248.650002 164.23,255.670002 160.44,261.910002 L157.09,263.460002 C149.78,260.190002 143.93,254.800002 137.78,249.970002 L137.78,245.390002 L150.13,226.720002 L151.44,226.450002 C151.56,226.390002 151.7,226.410002 151.44,226.410002 L151.51,226.450002 Z M137.3,210.000002 L137.79,209.870002 L145.66,219.350002 C144.66,221.670002 144.66,223.830002 146.35,225.820002 C143.826228,231.799503 140.272284,237.289501 135.85,242.040002 C138.89,231.480002 138.11,220.760002 137.3,210.000002 Z M127.95,179.650002 C126.43,176.410002 124.07,173.550002 122.07,170.530002 C121.79,170.110002 121.46,169.730002 121.07,169.220002 C127.62,170.220002 143.85,183.220002 149.27,191.710002 C147,195.200002 147.2,196.070002 150.76,198.440002 C151.69,201.930002 151.16,212.900002 149.76,217.060002 C149.17,216.870002 148.35,216.870002 148,216.460002 C144.22,212.050002 140.51,207.570002 136.89,203.240002 C137.48,200.320002 136.97,198.160002 134.73,196.570002 C134.32,196.280002 134.25,195.510002 134.04,194.960002 C132.03,189.870002 130.28,184.640002 127.95,179.680002 L127.95,179.650002 Z M133.78,251.380002 L155.38,266.980002 L155.73,266.600002 C155.88,267.230002 156.04,267.860002 156.23,268.600002 L147.98,280.750002 L145.39,281.750002 L134.34,276.490002 L131.6,272.060002 L130.84,272.170002 C131.8,265.370002 132.77,258.540002 133.78,251.410002 L133.78,251.380002 Z M132.83,297.290002 C132.2,291.820002 131.57,286.350002 130.83,280.140002 C135.66,280.810002 139.13,283.370002 142.93,285.070002 C142.98,285.900002 143.02,286.550002 143.07,287.440002 L133.65,297.540002 L132.83,297.290002 Z M136.49,306.290002 C137.594253,304.56041 137.440072,302.312619 136.11,300.750002 L145.94,290.480002 L150.73,289.780002 C157.28,295.010002 165.09,299.440002 171.22,306.950002 C161.9463,310.082663 153.796081,315.868484 147.78,323.590002 C142.771395,318.751001 138.913175,312.849189 136.49,306.320002 L136.49,306.290002 Z M153.22,380.440002 C153.22,380.190002 153.22,379.930002 153.22,380.100002 L156.22,380.540002 C156.419742,379.46161 156.516843,378.366716 156.51,377.270002 C156.42,376.390002 155.86,375.560002 155.93,374.760002 L156.82,370.760002 L152.64,370.360002 L152.39,370.840002 C150.16,368.340002 150.93,365.030002 150.15,362.300002 C152.64,358.820002 152.42,357.210002 149.08,354.210002 C148.9,352.780002 148.69,351.210002 148.49,349.690002 C150.17,346.640002 150.39,345.810002 147.84,343.510002 C147.66,341.670002 147.45,339.710002 147.26,337.740002 C147.07,335.770002 146.9,333.920002 146.7,331.740002 C149.86,328.250002 152.87,324.440002 156.36,321.140002 C163.62,314.270002 172.12,310.050002 182.36,310.140002 C192.08,310.230002 199.16,315.020002 204.55,322.730002 C204.868962,323.226403 205.022956,323.81088 204.99,324.400002 C203.87,338.770002 202.81,353.150002 201.52,367.510002 C200.98,373.510002 199.99,379.450002 199.11,385.400002 C198.9,386.810002 198.21,388.140002 197.94,389.550002 C197.74,390.610002 198.08,391.790002 197.82,392.820002 C197.09,395.720002 197.32,398.920002 195.15,401.400002 C194.77,401.820002 194.81,402.640002 194.73,403.290002 C194.53,405.140002 194.98,407.440002 194.05,408.760002 C192.50143,411.0454 191.688442,413.749547 191.72,416.510002 C191.61,418.640002 190.26,420.710002 189.5,422.700002 C185,424.510002 184.88,426.580002 185.97,429.700002 C184.843333,431.086669 183.603333,432.603336 182.25,434.250002 C179.72,432.510002 177.7,433.200002 175.74,435.650002 C174.173501,434.423379 172.696425,433.086658 171.32,431.650002 C167.38,426.980002 165.05,421.390002 162.9,415.760002 C158.58,404.360002 155.76,392.450002 153.22,380.470002 L153.22,380.440002 Z M296.02,324.580002 C289.59,316.480002 281.92,310.290002 272.02,307.190002 C271.874348,306.889354 271.75069,306.578539 271.65,306.260002 C271.571877,305.897371 271.518422,305.529862 271.49,305.160002 C277.17,298.350002 284.87,293.940002 291.41,288.680002 L296.28,289.420002 L306.03,299.610002 C304.75,301.670002 304.28,303.890002 306.58,305.820002 C304.712312,312.878282 301.078144,319.344762 296.02,324.610002 L296.02,324.580002 Z M309.44,296.320002 L308.7,296.570002 C305.52,293.180002 302.33,289.790002 299.22,286.460002 L299.22,284.000002 L309.9,279.000002 L310.82,279.580002 L309.44,296.320002 Z M310.91,270.550002 L307.83,275.460002 L296.89,280.650002 L294.27,279.710002 L286.08,267.710002 C286.19,267.060002 286.3,266.420002 286.31,266.330002 L308.49,250.330002 C310.428265,256.885442 311.23316,263.723672 310.87,270.550002 L310.91,270.550002 Z M296.55,218.340002 C299.61,214.630002 302.66,210.930002 305.97,206.900002 C305.02,218.800002 303.79,230.320002 307.3,241.680002 L306.36,242.060002 L295.44,225.270002 C297.44,223.000002 297.7,220.800002 296.51,218.340002 L296.55,218.340002 Z M291.22,197.720002 C294.79,194.830002 294.91,194.550002 293.85,191.360002 C301.049308,181.675674 310.64803,174.034608 321.7,169.190002 C318.462227,172.87786 315.878382,177.091828 314.06,181.650002 C312.26,186.130002 310.48,190.650002 308.6,195.350002 C305.6,196.460002 305.02,197.520002 305.22,201.680002 C301.96,207.280002 294.33,215.820002 292.36,215.780142 C290.71,209.810002 290.96,203.700002 291.18,197.720002 L291.22,197.720002 Z M287.44,200.880002 C287.86,206.330002 288.27,211.670002 288.67,217.000002 C288.25,218.720002 287.81,220.530002 287.36,222.340002 L288,222.780002 L276.58,233.000002 L276.04,232.510002 C278.67,221.530002 281.08,210.530002 287.44,200.880002 Z M277.93,235.880002 L290.69,225.330002 L292.04,225.560002 L304.47,244.340002 C304.41,245.510002 304.34,247.000002 304.26,248.490002 L304.74,248.930002 L285.54,262.780002 L285.17,262.350002 L281.73,260.710002 C277.93,254.710002 276.3,247.590002 274.46,241.240002 L277.93,235.880002 Z M271.93,244.490002 C273.98,250.340002 276,256.130002 278.13,262.220002 L276.03,266.430002 C270.40527,269.09574 264.438666,270.970189 258.3,272.000002 C264.44,263.520002 267.74,253.740002 271.99,244.510002 L271.93,244.490002 Z M258.26,276.300002 L278.32,269.790002 L284.01,270.730002 L291.59,282.640002 C290.839875,283.769245 289.975302,284.818126 289.01,285.770002 C284.37,289.510002 279.56,293.020002 275.01,296.840002 C273.035665,298.71517 271.188253,300.719595 269.48,302.840002 L265.48,302.570002 C260.377705,295.847095 257.017894,287.966312 255.7,279.630002 L258.26,276.300002 Z M227.69,289.450002 C236.08,288.010002 244.04,285.320002 250.49,279.300002 C250.97,279.430002 251.34,279.520002 251.71,279.640002 C252.08,279.760002 252.33,279.870002 252.9,280.090002 C254.140509,289.144104 257.603553,297.750182 262.98,305.140002 L248.24,307.850002 C247.17,306.110002 245.24,305.990002 242.89,307.080002 C236.72,302.810002 231.71,297.390002 226.89,291.750002 C227.13,291.000002 227.38,290.320002 227.69,289.450002 Z M223.55,293.830002 L224.22,293.570002 C229.08,299.910002 233.98,306.210002 240.79,310.570002 C240.79,311.040002 240.9,311.430002 240.93,311.830002 C240.946793,312.139775 240.946793,312.45023 240.93,312.760002 C232.02,319.580002 226.8,328.920002 223.59,339.560002 L223.55,293.830002 Z M220.44,369.400002 C220.690111,370.39241 220.993891,371.370515 221.35,372.330002 L222.01,372.330002 C222.39,370.390002 222.78,368.460002 223.14,366.530002 C226.07,350.940002 230.34,335.790002 239.24,322.440002 C246.66,311.310002 258.45,307.520002 270.91,311.730002 C271.29,311.860002 271.64,312.040002 272.14,312.250002 C269.95,347.750002 265.14,382.820002 254.71,416.860002 C250.92,418.970002 250.65,421.060002 252.35,424.020002 L249.44,431.930002 C244.9,432.740002 243.7,435.610002 246.15,439.810002 C241.98,449.270002 237.15,458.450002 230.04,466.360002 C230.127661,465.951827 230.181179,465.53706 230.2,465.120002 C230.14807,464.701727 230.067887,464.287447 229.96,463.880002 C227.96,464.420002 227.41,465.640002 227.49,470.040002 L218.8,476.940002 L218.06,476.250002 C218.88,474.916669 219.703333,473.616669 220.53,472.350002 C217.89,471.110002 216.26,472.890002 214.93,478.350002 L212.14,479.350002 C208.47,474.660002 204.59,474.350002 201.46,478.950002 L197.01,477.080002 C196.57,472.500002 195.78,471.080002 193.28,470.750002 C193.52,472.130002 193.76,473.420002 193.99,474.750002 L193.56,475.100002 L186.44,468.540002 C186.31,466.320002 187.58,464.300002 185.44,462.310002 C184.94,463.450002 184.58,464.310002 184.06,465.460002 C175.76,454.780002 170.57,442.720002 166.06,430.280002 C168.68,433.500002 171.01,436.980002 175.06,438.600002 C176.92,442.100002 178.75,442.600002 180.81,442.140002 C182.87,441.680002 183.68,440.220002 183.89,437.490002 L188.89,431.840002 C194.32,431.310002 195.72,428.760002 192.65,424.400002 L195.21,417.540002 C199.75,416.100002 200.44,413.810002 197.08,410.120002 C197.88,408.210002 198.8,406.120002 199.67,403.940002 C199.963918,403.363473 200.121308,402.727071 200.13,402.080002 C199.591138,398.430383 200.359748,394.707759 202.3,391.570002 C202.528633,391.240731 202.621737,390.836084 202.56,390.440002 C201.35,386.350002 203.16,382.500002 203.56,378.540002 C204.62,366.680002 205.89,354.830002 206.98,342.970002 C207.43,338.030002 207.6,333.070002 207.93,327.630002 C208.5,328.420002 208.93,328.930002 209.25,329.480002 C213.61,336.480002 215.41,344.360002 217.11,352.270002 C218.22,358.000002 219.27,363.690002 220.44,369.400002 Z M219.93,295.080002 L219.93,340.540002 C214.16,325.990002 214.93,325.150002 201.27,311.810002 C208.12,307.270002 213.16,301.180002 217.9,294.670002 L219.93,295.080002 Z M189.6,281.270002 L192.33,279.270002 C198.52,284.990002 206.21,287.920002 214.49,289.320002 C214.74,290.560002 214.97,291.650002 215.21,292.800002 C212.75,296.730002 203.31,305.800002 199.67,307.800002 L194.39,307.800002 L194.39,308.120002 C192.04,307.480002 189.71,306.680002 187.32,306.250002 C184.93,305.820002 182.51,305.750002 180.17,305.530002 C182.17,301.610002 184.4,297.800002 185.98,293.720002 C187.56,289.640002 188.44,285.390002 189.59,281.270002 L189.6,281.270002 Z M176.81,303.610002 L172.63,303.910002 C167.23,296.790002 159.83,291.860002 152.72,286.600002 C151.05,285.360002 150.64,283.900002 151.72,282.170002 C153.92,278.560002 156.2,275.000002 158.2,271.820002 L163.86,270.890002 L183.98,277.400002 L186.54,280.630002 C185.274692,288.986409 181.924988,296.889509 176.8,303.610002 L176.81,303.610002 Z M184.94,271.710002 L183.28,273.600002 L165.65,267.700002 L165.94,267.170002 L164.09,263.410002 L170.66,243.810002 C175.02,253.150002 178.21,263.260002 184.93,271.710002 L184.94,271.710002 Z M380.22,616.100002 C381.83,614.560002 381.82,613.100002 380.06,611.750002 C378.744502,610.756778 377.288567,609.964777 375.74,609.400002 C373.41,608.570002 370.98,608.040002 368.58,607.400002 C371.12,601.750002 371.24,601.190002 370.26,599.280002 C366.57,597.820002 361.48,599.870002 356.66,606.130002 L356.66,589.590002 L87.5,589.590002 L87.5,605.510002 C82.26,599.140002 77.02,597.830002 73.69,599.620002 C73.7929992,600.966716 73.996905,602.303803 74.3,603.620002 C74.7867154,604.990464 75.3646756,606.326788 76.03,607.620002 C75.5,607.700002 75.11,607.730002 74.73,607.820002 C71.18,608.600002 67.56,609.250002 64.62,611.620002 C62.71,613.170002 62.62,614.620002 64.44,616.270002 C67.0349532,618.917188 70.7076789,620.216484 74.39,619.790002 C75.19,619.690002 76,619.660002 77.07,619.580002 C76.32,620.770002 75.74,621.640002 75.21,622.580002 C74.0353826,624.373851 73.6150132,626.558335 74.04,628.660002 C74.51,630.740002 75.37,631.350002 77.45,630.880002 C81.0710268,630.1246 84.1987938,627.862424 86.05,624.660002 C86.44,624.020002 86.85,623.390002 87.26,622.750002 L87.62,622.860002 L87.62,639.340002 L356.73,639.340002 L356.73,622.330002 C357.428554,622.966388 358.013589,623.717127 358.46,624.550002 C360.239901,627.634787 363.201557,629.859641 366.66,630.710002 C369.22,631.370002 370.19,630.710002 370.58,628.030002 C370.802413,625.908628 370.252058,623.778222 369.03,622.030002 C368.57,621.260002 368.09,620.510002 367.46,619.520002 L370.51,619.800002 C374.140519,620.104626 377.712825,618.743397 380.22,616.100002 L380.22,616.100002 Z M352.43,635.100002 L91.95,635.100002 L91.95,593.730002 L352.44,593.730002 L352.43,635.100002 Z M164.98,63.8600022 C165.42,68.0100022 167.71,71.0800022 170.81,73.6700022 C171.27,74.0500022 171.74,74.4100022 172.2,74.7800022 L171.97,75.2100022 L163.44,74.4500022 C162.37,65.8600022 156.54,59.5100022 150.71,60.6900022 C148.42,64.7600022 150.47,68.2500022 152.86,72.1400022 L143.95,68.4400022 C145.28,63.1400022 142.86,59.5100022 139.21,56.5000022 C137.32,54.9300022 135.59,55.5000022 135.06,57.9000022 C134.886608,59.3902749 134.947342,60.8984966 135.24,62.3700022 C135.395163,63.0376858 135.626688,63.6852837 135.93,64.3000022 L135.47,64.7500022 C131.963333,62.0833356 128.453333,59.4166689 124.94,56.7500022 C124.33,56.2900022 123.66,55.9200022 123.01,55.5000022 L122.43,56.1000022 C122.31,59.3700022 125.08,60.8100022 127.17,62.5500022 C129.43,64.4300022 131.92,66.0200022 134.17,67.6700022 C132.765868,67.9763585 131.395763,68.4218936 130.08,69.0000022 C129.2,69.4700022 128.08,70.5500022 128.08,71.3500022 C128.08,72.1500022 129.24,73.2300022 130.14,73.6000022 C134.58,75.4300022 138.88,75.7100022 142.36,71.4900022 L151.08,75.1200022 C149.240745,76.4037241 147.474659,77.7892171 145.79,79.2700022 C144.431295,80.3453281 143.963795,82.1989245 144.65,83.7900022 C145.44,85.4900022 147.03,85.9900022 148.76,86.0800022 C154.671987,86.222364 160.131244,82.9273126 162.76,77.6300022 L171.81,78.3400022 C170.27,80.1500022 168.81,81.6600022 167.58,83.3400022 C166.35,85.0200022 165.33,87.2300022 166.86,89.4000022 C167.98,90.9900022 170.37,91.2200022 173.12,90.2100022 C173.496825,90.0782664 173.864327,89.9212428 174.22,89.7400022 C178.99,87.1800022 182.84,83.8600022 183.6,78.1300022 L190.9,76.1900022 L190.9,101.000002 L250.73,101.000002 L250.73,76.0000022 L256.45,77.4200022 C257.27,83.1300022 260.91,86.4200022 265.52,88.8500022 C266.927606,89.5687185 268.471494,89.9811036 270.05,90.0600022 C271.277379,90.2407888 272.505794,89.7386993 273.255154,88.7499607 C274.004513,87.7612222 274.155843,86.4428158 273.65,85.3100022 C273.09677,83.7573493 272.289077,82.3075565 271.26,81.0200022 C270.266319,79.9234475 269.175178,78.9193298 268,78.0200022 L268.32,77.5700022 L277.32,76.9000022 C279.988546,82.2774352 285.572071,85.5805311 291.57,85.3300022 C293.22,85.2000022 295.02,84.7100022 295.37,83.0100022 C295.581666,81.5569853 295.26211,80.0763769 294.47,78.8400022 C293.59,77.5300022 292.05,76.6600022 290.74,75.6500022 C290.078676,75.2288737 289.390544,74.8514031 288.68,74.5200022 L297.79,70.7400022 C301.187392,74.5313697 306.869319,75.2159392 311.07,72.3400022 C312.58,71.2600022 312.67,69.8100022 311.07,68.8600022 C309.455086,68.0510885 307.784113,67.3593058 306.07,66.7900022 C306.33,66.6200022 306.82,66.3300022 307.27,65.9800022 C310.27,63.6800022 313.27,61.4600022 316.17,58.9800022 C317.24,58.0700022 318.42,56.8300022 317.33,54.7500022 C316.704638,55.0418062 316.099902,55.3759145 315.52,55.7500022 C312.22,58.1800022 308.95,60.6500022 305.65,63.0800022 C305.304034,63.2906726 304.930458,63.4522192 304.54,63.5600022 C305.003352,61.8929938 305.275108,60.1785865 305.35,58.4500022 C305.275974,57.1690622 304.638943,55.9865287 303.61,55.2200022 C302.89,54.8300022 301.14,55.5100022 300.35,56.2200022 C297.16,59.2200022 294.88,62.7300022 296.25,67.6500022 L287.25,71.3700022 C289.85,67.4600022 291.65,63.9900022 289.55,59.8800022 C286.94,59.0800022 285.09,60.4400022 283.29,61.5800022 C278.99,64.3300022 276.57,68.2100022 276.93,73.6600022 L268.13,74.3700022 C268.909286,73.3588617 269.790598,72.4306352 270.76,71.6000022 C273.407578,69.228012 275.013627,65.9081273 275.23,62.3600022 C275.32,59.9300022 274.08,58.9500022 271.75,59.4700022 C268.106755,60.237848 264.709516,61.8935297 261.86,64.2900022 C258.871977,66.7424929 257.167023,70.4248987 257.23,74.2900022 L250.64,72.6200022 L250.64,51.1200022 L190.84,51.1200022 L190.84,73.0000022 L182.91,75.0000022 C182.82,69.5000022 180.16,65.8500022 175.91,63.3700022 C173.663742,62.1132105 171.286128,61.1071676 168.82,60.3700022 C165.93,59.5100022 164.64,60.7400022 164.98,63.8600022 Z M195.44,55.4600022 L246.36,55.4600022 L246.36,96.5200022 L195.44,96.5200022 L195.44,55.4600022 Z M30.21,646.590002 L30.21,393.700002 L26.05,396.700002 L26.05,650.260002 C38.64,652.670002 46.99,658.820002 47.71,672.500002 C48.27,672.500002 48.79,672.590002 49.31,672.590002 C88.53,672.590002 127.743333,672.590002 166.95,672.590002 C170.25,672.590002 171.47,670.020002 173.39,668.080002 L51.5,668.080002 C48.08,655.070002 42.67,649.570002 30.21,646.590002 Z M415.76,396.750002 L411.44,393.610002 L411.44,646.610002 C399.3,648.870002 392.92,656.560002 390.1,668.270002 L267.86,668.270002 C270.46,670.700002 272.38,672.900002 276.16,672.720002 C283.29,672.370002 290.46,672.610002 297.61,672.620002 L392.44,672.620002 C393.01,672.620002 393.59,672.540002 394.07,672.500002 C394.89,658.720002 403.28,652.620002 415.8,650.320002 L415.76,396.750002 Z M412.34,51.5500022 L412.34,294.490002 L416.55,291.410002 L416.55,47.8200022 C404,45.5200022 395.63,39.3900022 394.82,25.6400022 C394.32,25.6400022 393.74,25.5200022 393.16,25.5200022 C354.41,25.5200022 315.66,25.5900022 276.92,25.4400022 C273.18,25.4400022 271.25,27.4400022 268.63,29.9000022 L390.92,29.9000022 C393.63,41.5400022 400.03,49.2800022 412.34,51.5500022 Z M26.78,291.420002 L31.11,294.570002 L31.11,51.5700022 C43.27,49.3400022 49.62,41.6300022 52.46,29.9300022 L174.68,29.9300022 C172.09,27.4900022 170.15,24.9300022 166.39,25.5300022 C164.475891,25.6700472 162.554109,25.6700472 160.64,25.5300022 L50.35,25.5300022 C49.71,25.5300022 49.07,25.5900022 48.52,25.6200022 C47.68,39.4000022 39.32,45.5400022 26.78,47.8300022 L26.78,291.420002 Z M395.52,434.300002 C395.64,456.886669 395.773333,479.473336 395.92,502.060002 C396.12,532.393336 396.35,562.726669 396.61,593.060002 C396.75,606.830002 397.16,620.600002 397.48,634.370002 C397.586914,635.54869 397.777393,636.718299 398.05,637.870002 L398.93,637.870002 C399.202946,637.080447 399.400495,636.266813 399.52,635.440002 C399.71,632.010002 399.89,628.560002 399.91,625.120002 C399.91,608.900002 400.03,592.670002 399.91,576.450002 C399.696667,542.670002 399.436667,508.893336 399.13,475.120002 C398.99,457.240002 398.846667,439.356669 398.7,421.470002 C398.7,420.190002 398.47,418.900002 398.34,417.610002 C395.97,416.960002 395.5,418.040002 395.5,419.610002 C395.5,424.503336 395.506667,429.400002 395.52,434.300002 Z M47,419.660002 C47.0555879,418.871358 46.9709453,418.079103 46.75,417.320002 C46.55,416.820002 45.81,416.170002 45.38,416.220002 C44.7216515,416.381396 44.1622515,416.81366 43.84,417.410002 C43.6426633,418.040083 43.5880091,418.706181 43.68,419.360002 C43.68,425.920002 43.7133333,432.476669 43.78,439.030002 C43.9066667,462.470002 44.04,485.910002 44.18,509.350002 C44.3866667,538.276669 44.63,567.210002 44.91,596.150002 C45.04,607.410002 45.47,618.650002 45.79,629.900002 C45.8716477,630.622742 46.0223359,631.335999 46.24,632.030002 L47.01,632.030002 C47.1975721,631.375863 47.328061,630.70669 47.4,630.030002 C47.55,626.460002 47.74,622.880002 47.75,619.310002 C47.8,598.580002 47.86,577.860002 47.8,557.130002 C47.74,532.960002 47.56,508.790002 47.42,484.630002 C47.2933333,462.963336 47.1533333,441.306669 47,419.660002 Z M398.88,252.400002 C399.03,244.990002 399.23,237.580002 399.25,230.160002 C399.323333,199.973336 399.356667,169.783336 399.35,139.590002 C399.35,115.890002 399.27,92.1900022 399.11,68.4900022 C399.031778,67.2705882 398.871414,66.057837 398.63,64.8600022 C396.55,64.8600022 396.78,66.2300022 396.75,67.2400022 C396.57,72.2400022 396.4,77.1700022 396.34,82.1300022 C396.19,94.7700022 396.05,107.420002 396,120.060002 C395.89,142.970002 395.86,165.870002 395.79,188.780002 C395.73,207.980002 395.66,227.180002 395.58,246.380002 C395.58,248.940002 395.58,251.500002 395.58,253.960002 C398.24,254.800002 398.84,254.420002 398.88,252.400002 Z M47.82,167.940002 C47.7333333,137.273336 47.6133333,106.606669 47.46,75.9400022 C47.46,71.9400022 47.34,67.8600022 47.23,63.8300022 C47.140713,62.9663928 46.9869507,62.1106721 46.77,61.2700022 C44.93,63.8500022 44.39,250.900002 45.77,254.420002 C47.63,254.960002 47.77,253.780002 47.77,252.420002 C47.77,245.420002 47.89,238.420002 47.89,231.360002 C47.8966667,210.206669 47.8733333,189.066669 47.82,167.940002 Z M89.5,497.220002 C90.3634752,497.624253 91.2737573,497.919842 92.21,498.100002 C95.51,499.210002 98.87,500.210002 102.05,501.620002 C104.75,502.830002 106.15,505.180002 106.46,508.230002 C106.74,510.990002 107.26,513.730002 107.71,516.470002 C108.28,520.020002 108.89,523.560002 109.48,527.100002 L109.85,527.100002 C109.992225,526.836071 110.10619,526.557862 110.19,526.270002 C111.19,520.200002 112.19,514.130002 113.05,508.040002 C113.25794,505.570301 114.622872,503.344869 116.73,502.040002 C118.167928,501.101928 119.707809,500.33031 121.32,499.740002 C124.13,498.820002 127.02,498.180002 130.32,497.300002 C129.592161,497.186113 128.871087,497.03255 128.16,496.840002 C124.49,495.590002 120.75,494.500002 117.16,492.980002 C114.959864,492.042569 113.432533,489.995945 113.16,487.620002 C112.59,483.760002 111.96,479.910002 111.35,476.060002 C110.89,473.230002 110.41,470.410002 109.94,467.580002 C109.46,467.810002 109.33,468.020002 109.3,468.240002 C108.3,474.240002 107.25,480.240002 106.47,486.240002 C106.04,489.500002 104.67,492.040002 101.72,493.240002 C98.34,494.670002 94.72,495.630002 91.26,496.770002 C90.682764,496.954729 90.0950617,497.104994 89.5,497.220002 L89.5,497.220002 Z M181.5,25.6200022 C184.64,26.2600022 187.83,26.6700022 191.2,27.2100022 C190.81,28.0700022 190.36,28.8700022 190.06,29.7300022 C189.55,31.1800022 189.06,32.7300022 190.41,33.9700022 C191.76,35.2100022 193.41,34.7400022 194.85,33.9700022 C197.742812,32.4535539 200.112244,30.101544 201.65,27.2200022 C204.39,21.9900022 202.73,17.3000022 199.42,13.0800022 C197.950693,11.242134 196.1745,9.6723182 194.17,8.44000222 C192.3,7.28000222 190.17,8.73000222 190.17,10.9500022 C190.208867,12.0707643 190.438839,13.1766591 190.85,14.2200022 C191.27788,15.2995136 191.765295,16.3544666 192.31,17.3800022 C188.63,17.8900022 184.97,18.2700022 181.36,18.9600022 C179.6,19.3000022 177.43,19.9600022 177.54,22.3000022 C177.66,24.5000022 179.66,25.2400022 181.49,25.6200022 L181.5,25.6200022 Z M427.05,361.800002 C418.71,356.660002 410.78,363.350002 408.5,369.400002 C407.5,372.030002 409.32,373.940002 412.05,373.270002 C413.459397,372.825342 414.838885,372.290916 416.18,371.670002 C416.07318,372.784114 416.07318,373.90589 416.18,375.020002 C416.681077,378.056845 417.443921,381.044649 418.46,383.950002 C419.38,386.190002 421.91,385.950002 423.1,383.820002 C423.626793,382.888149 423.991957,381.873805 424.18,380.820002 C424.68,377.400002 425.05,373.950002 425.45,370.640002 C426.89,371.230002 428.5,371.980002 430.18,372.550002 C431.7,373.060002 433.25,373.000002 434.32,371.550002 C435.305089,370.252201 435.074237,368.405388 433.8,367.390002 C431.756921,365.290056 429.493906,363.415945 427.05,361.800002 Z M16.56,372.060002 C16.56,375.920002 16.75,379.770002 18.41,383.310002 C18.9361206,384.317798 19.8738476,385.047547 20.98,385.310002 C21.78,385.390002 22.98,384.370002 23.51,383.540002 C24.1947533,382.410899 24.6469423,381.156329 24.84,379.850002 C25.3,377.220002 25.54,374.540002 25.84,371.760002 C26.89,372.190002 27.9,372.640002 28.93,373.020002 C30.29,373.520002 31.93,373.860002 32.68,372.450002 C33.2525921,371.246483 33.3209879,369.864167 32.87,368.610002 C31.4584733,365.356011 28.9194602,362.721119 25.72,361.190002 C19.72,358.190002 9.35,362.500002 7.07,368.790002 C6.5957237,369.819965 6.77472329,371.032858 7.52630562,371.881908 C8.27788794,372.730957 9.46010013,373.055802 10.54,372.710002 C12.5871124,372.156762 14.592192,371.458326 16.54,370.620002 L16.56,372.060002 Z M249.69,34.3700022 C250.792711,34.6914427 251.981811,34.4926459 252.92,33.8300022 C253.56,33.2800022 253.71,31.8300022 253.57,30.8300022 C253.272434,29.6158965 252.832731,28.4411173 252.26,27.3300022 C255.9,26.6600022 259.41,26.1400022 262.86,25.3300022 C264.33,24.9900022 265.81,24.0600022 265.81,22.2500022 C265.81,20.4400022 264.3,19.7700022 262.81,19.2500022 C262.260011,19.0212718 261.686577,18.8536011 261.1,18.7500022 C257.72,18.3100022 254.33,17.9100022 251.05,17.5100022 C251.62,16.0700022 252.37,14.4000022 252.95,12.6700022 C253.626036,11.2248476 253.171369,9.50300589 251.87,8.58000222 C250.601719,7.69733863 248.870447,7.92240399 247.87,9.10000222 C245.744432,11.1484326 243.843658,13.4179632 242.2,15.8700022 C237.01,24.1500022 243.62,32.0700022 249.69,34.3700022 Z M8.13,315.480002 C10.216981,317.57561 12.5351629,319.427472 15.04,321.000002 C21.82,324.900002 31.32,320.660002 33.34,313.050002 C34.01,310.540002 32.45,308.770002 29.9,309.320002 C28.4210798,309.747542 26.9741563,310.27886 25.57,310.910002 C25.6716283,309.875826 25.6716283,308.834178 25.57,307.800002 C25.0703943,304.699796 24.3042194,301.64848 23.28,298.680002 C22.38,296.430002 19.84,296.630002 18.65,298.790002 C18.1156747,299.718383 17.750026,300.734074 17.57,301.790002 C17.07,305.210002 16.7,308.660002 16.28,312.010002 C14.98,311.440002 13.51,310.670002 11.96,310.150002 C10.41,309.630002 8.61,309.430002 7.43,311.040002 C6.25,312.650002 6.93,314.350002 8.13,315.480002 Z M193.84,664.050002 C192.48,663.270002 190.69,662.780002 189.66,664.210002 C189,665.130002 189.09,666.750002 189.22,668.020002 C189.438713,669.009884 189.799092,669.963035 190.29,670.850002 C186.74,671.470002 183.29,671.950002 179.9,672.720002 C178.37,673.070002 176.77,673.960002 176.74,675.850002 C176.71,677.740002 178.32,678.420002 179.86,678.950002 C180.349954,679.151562 180.859284,679.30235 181.38,679.400002 C184.77,679.840002 188.15,680.240002 191.38,680.640002 C190.564002,682.508283 189.895299,684.437493 189.38,686.410002 C188.87,689.200002 191.33,690.990002 193.72,689.530002 C195.553292,688.371602 197.168005,686.899066 198.49,685.180002 C205.52,676.310002 201.64,668.520002 193.84,664.050002 Z M425.17,310.350002 C424.6,306.660002 424.12,302.940002 423.31,299.290002 C422.901471,298.278712 422.023598,297.531586 420.96,297.290002 C419.886025,297.364802 418.912424,297.94822 418.34,298.860002 C417.517683,300.578854 416.935567,302.402594 416.61,304.280002 C416.21,306.390002 416.16,308.560002 415.94,310.850002 C414.8,310.380002 413.8,309.940002 412.77,309.560002 C411.41,309.060002 409.77,308.720002 409.01,310.120002 C408.434645,311.326361 408.366221,312.712855 408.82,313.970002 C410.206888,317.168373 412.688862,319.767355 415.82,321.300002 C421.82,324.410002 432.33,320.170002 434.65,313.780002 C435.120964,312.748936 434.938542,311.537024 434.184924,310.690287 C433.431307,309.84355 432.24873,309.521801 431.17,309.870002 C429.123864,310.422314 427.118952,311.11735 425.17,311.950002 C425.214336,311.41759 425.214336,310.882414 425.17,310.350002 L425.17,310.350002 Z M262.62,673.050002 C261.082353,672.456123 259.487103,672.023796 257.86,671.760002 C255.74,671.420002 253.59,671.320002 251.33,671.110002 C251.93275,669.972093 252.399301,668.767117 252.72,667.520002 C252.87,666.450002 252.78,664.870002 252.12,664.290002 C251.12608,663.61166 249.873171,663.434257 248.73,663.810002 C244.12,665.810002 240.83,669.130002 239.73,674.170002 C238.63,679.210002 243.11,687.470002 247.87,689.520002 C248.921543,689.956892 250.11317,689.901894 251.12,689.370002 C251.951766,688.569552 252.362283,687.426762 252.23,686.280002 C251.693655,684.252288 251.008463,682.266901 250.18,680.340002 C250.596137,680.3697 251.013863,680.3697 251.43,680.340002 C255.07,679.830002 258.75,679.470002 262.33,678.690002 C263.528437,678.246498 264.464482,677.288428 264.88,676.080002 C265.38,674.510002 263.93,673.550002 262.62,673.050002 Z M419.83,41.1000022 C421.41,40.8200022 422.83,40.3100022 423.17,38.5100022 C423.51,36.7100022 422.39,35.7200022 421.08,35.0100022 C419.48,34.1500022 417.74,33.5400022 415.9,32.7500022 C416.401227,32.3482003 416.872478,31.9103719 417.31,31.4400022 C419.47,28.6200022 421.74,25.8700022 423.64,22.8900022 C424.196592,21.7511345 424.140165,20.4081658 423.49,19.3200022 C422.85,18.6300022 421.01,18.5200022 419.93,18.8700022 C418.264234,19.5045101 416.70084,20.3805499 415.29,21.4700022 C413.6,22.6700022 412.05,24.0800022 410.42,25.4100022 C410.050577,24.1057734 409.519807,22.8527546 408.84,21.6800022 C408.215611,20.7350616 407.2199,20.0991144 406.1,19.9300022 C404.975348,20.1635692 404.020401,20.9009804 403.51,21.9300022 C401.626488,26.1669177 401.837468,31.0416627 404.08,35.1000022 C406.64,40.0000022 415.17,41.9000022 419.83,41.1000022 Z M22.75,27.8300022 C24.16,29.6100022 25.8,31.2100022 27.26,32.8300022 C25.53,33.5900022 23.79,34.2200022 22.18,35.1000022 C20.87,35.8200022 19.84,36.9400022 20.18,38.6300022 C20.52,40.3200022 21.89,40.8400022 23.39,41.1200022 C26.69,41.7500022 29.8,40.9500022 32.91,40.0000022 C41.91,37.2800022 42.36,26.7700022 39.65,21.5300022 C38.44,19.2000022 36,19.1700022 34.65,21.4200022 C33.9579727,22.7409527 33.3565851,24.107439 32.85,25.5100022 C32.1994019,24.8636941 31.5115608,24.2559899 30.79,23.6900022 C28.41,22.0400022 26.05,20.3400022 23.55,18.9000022 C22.37,18.2300022 20.55,17.9000022 19.78,19.3600022 C19.2888681,20.5305738 19.2888681,21.8494306 19.78,23.0200022 C20.5486858,24.749867 21.5477355,26.3678565 22.75,27.8300022 L22.75,27.8300022 Z M35.75,660.180002 C31.7146589,657.070495 26.4587467,656.023752 21.54,657.350002 C18.94,657.970002 18.43,660.660002 20.54,662.350002 C21.9010716,663.262846 23.3560445,664.02721 24.88,664.630002 C25.3204857,664.821632 25.7751855,664.978771 26.24,665.100002 C23.95,668.050002 21.63,670.840002 19.55,673.790002 C18.55,675.270002 17.37,677.200002 18.97,678.860002 C20.57,680.520002 22.64,679.540002 24.24,678.520002 C26.95,676.780002 29.5,674.800002 32.24,672.830002 C32.5,673.620002 32.7,674.460002 33.04,675.240002 C33.68,676.700002 34.33,678.320002 36.26,678.300002 C38.19,678.280002 39.09,676.730002 39.5,675.070002 C40.89,669.470002 40.88,664.070002 35.77,660.180002 L35.75,660.180002 Z M421.1,672.090002 C419.26,669.710002 417.23,667.460002 415.38,665.280002 C417.06,664.520002 418.9,663.820002 420.6,662.860002 C421.84,662.160002 422.95,660.860002 422.23,659.430002 C421.641736,658.303991 420.607679,657.476745 419.38,657.150002 C414.38,656.470002 409.69,657.150002 405.65,660.470002 C401.45,663.960002 400.04,671.860002 402.81,676.570002 C404.18,678.920002 406.56,678.990002 407.96,676.570002 C408.618259,675.27748 409.186282,673.940954 409.66,672.570002 C410.342803,673.261914 411.074709,673.903585 411.85,674.490002 C414.5,676.190002 417.05,678.130002 419.91,679.360002 C422.35,680.420002 424.08,678.360002 423.16,675.860002 C422.675967,674.506776 421.98803,673.235442 421.12,672.090002 L421.1,672.090002 Z M228.68,665.620002 C227.928515,665.170018 227.027916,665.040332 226.18,665.260002 C225.83,665.330002 225.42,666.470002 225.5,667.070002 C225.96,670.920002 224.5,673.290002 220.67,674.480002 C217.09,673.130002 215.82,670.970002 216.28,666.970002 C216.424733,666.337098 216.198564,665.676821 215.696172,665.265581 C215.193781,664.85434 214.501835,664.763079 213.91,665.030002 C213.375441,665.271765 212.890524,665.610868 212.48,666.030002 C209.114961,669.414443 208.256684,674.556085 210.34,678.850002 C212.28,682.930002 217.6,686.120002 221.62,685.610002 C226.78383,685.107922 231.050382,681.364626 232.22,676.310002 C233.181525,672.366963 231.81613,668.220353 228.7,665.620002 L228.68,665.620002 Z M213.84,32.4800022 C214.584778,32.9373171 215.482719,33.0743525 216.33,32.8600022 C216.69,32.7900022 217.1,31.6500022 217.03,31.0500022 C216.6,27.3900022 217.9,25.0500022 221.47,23.5800022 C225.38,24.9400022 226.71,27.0800022 226.24,31.1300022 C226.097538,31.7951954 226.358143,32.4821347 226.905967,32.8854538 C227.453791,33.288773 228.187133,33.3335978 228.78,33.0000022 C229.300783,32.7210508 229.768008,32.3520108 230.16,31.9100022 C233.478485,28.4734728 234.257039,23.3125439 232.1,19.0500022 C229.73,14.3700022 224.96,12.1100022 221.16,12.5100022 C215.42,13.1100022 211.29,16.7900022 210.31,21.7300022 C209.320925,25.6940314 210.693504,29.8739792 213.84,32.4800022 L213.84,32.4800022 Z M29.84,336.670002 C30.4683027,336.756544 31.1024892,336.55859 31.57,336.130002 C31.885249,335.512342 31.9600793,334.799672 31.78,334.130002 C31.5359749,333.587186 31.1615322,333.113121 30.69,332.750002 C26.8353803,329.136227 20.9957852,328.663419 16.61,331.610002 C12.68,334.210002 9.93,340.290002 12.17,345.610002 C14.26,350.530002 19.58,353.710002 24.59,352.860002 C27.2516714,352.5479 29.6835885,351.200827 31.36,349.110002 C31.8032005,348.419364 31.9441434,347.57732 31.75,346.780002 C31.63,346.360002 30.58,345.900002 29.99,345.950002 C25.87,346.310002 23.8,345.080002 22.41,341.170002 C23.82,337.590002 26.23,336.200002 29.82,336.670002 L29.84,336.670002 Z M412.62,346.190002 C411.725105,346.217579 410.839057,346.375923 409.99,346.660002 C410.28,347.660002 410.29,348.900002 410.91,349.600002 C414.23,353.03899 419.39095,353.940237 423.68,351.830002 C428.42,349.580002 430.83,344.720002 430.44,340.830002 C429.87,335.110002 426.19,330.950002 421.25,329.950002 C417.296895,328.955798 413.12356,330.311938 410.51,333.440002 C410.041987,334.180081 409.8873,335.075825 410.08,335.930002 C410.15,336.290002 411.27,336.740002 411.87,336.670002 C415.64,336.280002 417.81,337.470002 419.37,341.060002 C418.2,344.550002 415.44,346.500002 412.6,346.190002 L412.62,346.190002 Z M351.08,382.830002 C351.400393,382.729317 351.714315,382.609092 352.02,382.470002 C349.2,381.470002 346.37,380.560002 343.67,379.360002 C341.676724,378.498059 340.330544,376.596435 340.18,374.430002 C339.69,370.550002 338.97,366.710002 338.33,362.860002 C338.21,362.140002 338.04,361.420002 337.89,360.700002 C337.512974,360.966055 337.2603,361.373943 337.19,361.830002 C336.5,366.080002 335.77,370.320002 335.19,374.570002 C335.048389,376.385314 334.019106,378.013451 332.44,378.920002 C330.877777,379.774805 329.253144,380.510235 327.58,381.120002 C326.169124,381.554835 324.737325,381.918626 323.29,382.210002 C323.709721,382.552998 324.207904,382.786629 324.74,382.890002 C327.11,383.700002 329.53,384.370002 331.82,385.380002 C333.803521,386.276332 335.119664,388.20616 335.23,390.380002 C335.76,394.510002 336.52,398.620002 337.23,402.730002 C337.384706,403.339483 337.571635,403.940327 337.79,404.530002 C338.06,403.410002 338.23,402.860002 338.32,402.310002 C339.036615,398.941726 339.567417,395.536583 339.91,392.110002 C340.15,387.400002 342.84,385.110002 346.91,383.900002 C348.22,383.460002 349.65,383.190002 351.06,382.830002 L351.08,382.830002 Z M191.89,176.000002 C192.73,179.590002 193.11,183.300002 193.69,187.000002 C193.86,188.060002 194.07,189.120002 194.26,190.180002 C194.660501,189.870098 194.928532,189.419806 195.01,188.920002 C195.758074,185.422857 196.315563,181.887645 196.68,178.330002 C196.96,173.630002 199.63,171.330002 203.68,170.120002 C205.07,169.700002 206.51,169.420002 207.91,169.060002 C208.28,168.970002 208.63,168.790002 208.91,168.680002 C206.2,167.740002 203.53,166.960002 200.99,165.890002 C198.642865,164.98196 197.038225,162.791684 196.88,160.280002 C196.33,155.830002 195.48,151.420002 194.76,146.980002 L194.29,146.980002 C194.181875,147.260661 194.091694,147.547906 194.02,147.840002 C193.33,152.150002 192.59,156.460002 192.02,160.780002 C191.871414,162.664165 190.790561,164.349244 189.14,165.270002 C187.629498,166.089481 186.058196,166.791552 184.44,167.370002 C183.05,167.870002 181.57,168.110002 180.13,168.470002 C180.542068,168.811188 181.028432,169.050944 181.55,169.170002 C184.14,170.120002 186.88,170.810002 189.25,172.170002 C190.568965,173.080661 191.508245,174.443329 191.89,176.000002 Z M334.6,498.060002 C334.382688,495.73936 334.00174,493.436965 333.46,491.170002 C332.708623,492.652928 332.282461,494.279164 332.21,495.940002 C332.3,501.040002 329.54,503.350002 324.86,504.010002 C324.77,504.010002 324.7,504.180002 324.58,504.320002 C325.17,504.520002 325.72,504.750002 326.28,504.890002 C330.53,505.980002 331.38,506.890002 331.98,511.060002 C332.28,513.180002 332.67,515.290002 332.98,517.410002 C333.701461,515.314435 334.220499,513.154568 334.53,510.960002 C334.61499,510.571912 334.665189,510.177014 334.68,509.780002 C334.637757,508.070747 335.686583,506.523628 337.29,505.930002 C338.73,505.290002 340.29,504.830002 342.08,504.170002 C340.8,503.810002 339.91,503.580002 339.03,503.310002 C336.44,502.510002 334.7,501.170002 334.6,498.060002 Z M231.05,222.440002 C230.65,220.280002 230.27,218.110002 229.88,215.950002 C229.168655,217.749066 228.70443,219.636243 228.5,221.560002 C227.93,226.220002 226.59,227.670002 221.92,228.560002 L220.57,228.880002 C221.64,229.240002 222.24,229.470002 222.85,229.640002 C227.08,230.820002 227.85,231.790002 228.47,236.150002 C228.73,238.150002 229.11,240.070002 229.47,242.030002 L229.97,242.030002 C230.2,240.490002 230.5,238.960002 230.66,237.420002 C231.25,232.050002 232.1,230.880002 236.42,229.680002 C237.09,229.490002 237.76,229.260002 239.01,228.870002 C237.91,228.690002 237.41,228.620002 236.92,228.520002 C232.91,227.630002 231.78,226.460002 231.05,222.440002 Z M93.84,371.000002 C97.84,372.000002 98.84,373.270002 99.37,377.370002 C99.6,379.370002 99.97,381.310002 100.28,383.270002 L100.82,383.270002 C101.23,380.780002 101.73,378.270002 102.01,375.800002 C102.113649,374.038449 103.252866,372.5064 104.91,371.900002 C106.3,371.330002 107.74,370.900002 109.57,370.240002 C108.48,369.980002 107.84,369.840002 107.2,369.670002 C104.14,368.900002 101.95,367.460002 101.85,363.820002 C101.646912,361.646654 101.285959,359.490963 100.77,357.370002 C100.054569,359.028113 99.5927314,360.784445 99.4,362.580002 C98.8,367.690002 97.93,368.720002 92.99,369.900002 C92.65,369.990002 92.32,370.110002 91.62,370.320002 C92.6,370.640002 93.21,370.860002 93.84,371.000002 Z M242.44,222.080002 C242.52,222.630002 242.67,223.180002 242.79,223.740002 C243.49,221.830002 243.33,219.740002 244.18,218.260002 C245.03,216.780002 246.87,215.890002 248.24,214.770002 C242.91,214.770002 244.15,209.900002 242.67,206.640002 C242.414408,207.818163 242.227426,209.010168 242.11,210.210002 C242.02,212.720002 240.65,214.040002 238.34,214.600002 L237.18,214.910002 L236.81,215.400002 C241.61,215.420002 241.94,218.790002 242.44,222.080002 Z M141.84,524.000002 C141,522.420002 141.09,520.330002 140.78,518.460002 L140.35,518.460002 C140.04,520.320002 140.14,522.400002 139.3,523.970002 C138.46,525.540002 136.71,526.380002 135.39,527.530002 C138.49,527.780002 139.83,529.850002 139.86,533.090002 C139.944573,534.02532 140.122117,534.949885 140.39,535.850002 C141.73,532.490002 140.64,527.850002 145.72,527.480002 C144.44,526.370002 142.61,525.470002 141.84,524.000002 Z M19.15,409.730002 C18.49,409.440002 16.82,409.870002 16.66,410.320002 C16.2957352,411.372286 16.3751542,412.52747 16.88,413.520002 C17.71,414.710002 19.06,414.400002 20.2,413.420002 C20.65,412.000002 20.76,410.440002 19.15,409.730002 Z M424.85,413.520002 C425.366932,412.534918 425.45027,411.379054 425.08,410.330002 C424.93,409.870002 423.26,409.430002 422.6,409.720002 C420.99,410.430002 421.09,411.960002 421.54,413.410002 C422.68,414.400002 424.03,414.710002 424.85,413.520002 L424.85,413.520002 Z M20.02,404.000002 C20.62,402.170002 20.79,400.690002 19.37,399.890002 C18.62,399.480002 17.44,399.890002 15.77,399.890002 C16.38,401.640002 16.48,402.890002 17.19,403.630002 C17.74,404.180002 19.04,403.930002 20.02,404.000002 Z M20.42,288.090002 C21.4944544,287.130474 21.622308,285.494829 20.71,284.380002 C17.71,283.590002 16.81,284.480002 17.24,287.740002 C18.25,288.810002 19.44,289.130002 20.44,288.120002 L20.42,288.090002 Z M425.26,400.400002 C424.36,399.400002 423.26,399.030002 422.17,400.010002 C421.078865,400.948691 420.907912,402.574937 421.78,403.720002 C424.81,404.610002 425.84,403.610002 425.26,400.400002 Z M423.06,288.160002 C423.77,288.630002 424.99,288.330002 425.99,288.380002 C426.57,284.510002 425.45,283.500002 422.43,284.540002 C421.9,285.830002 421.73,287.280002 423.06,288.160002 L423.06,288.160002 Z M275.04,20.6200022 C275.9,20.5200022 276.65,19.5200022 278.04,18.5100022 C276.74,17.5100022 276.04,16.5100022 275.2,16.3300022 C274.624487,16.1145844 273.978426,16.213083 273.493252,16.5902134 C273.008079,16.9673439 272.753231,17.5691322 272.82,18.1800022 C272.84,19.5400022 273.56,20.7900022 275.04,20.6200022 Z M168.27,20.6700022 C168.912487,20.7104093 169.538012,20.4538963 169.967152,19.9740402 C170.396291,19.4941842 170.581628,18.8440068 170.47,18.2100022 C170.38,17.3900022 169.38,16.6700022 168.79,15.9000022 L167.86,15.9000022 C167.31,16.6900022 166.45,17.4300022 166.28,18.3000022 C166.121208,18.8952977 166.262542,19.5306277 166.658726,20.0024646 C167.054909,20.4743016 167.65621,20.7234152 168.27,20.6700022 L168.27,20.6700022 Z M18.36,424.160002 C19.7,424.090002 20.49,423.280002 20.44,422.270002 C20.39,420.340002 19.44,419.480002 18.18,419.850002 C17.217491,420.19797 16.4759854,420.980258 16.18,421.960002 C16.1172342,422.556946 16.3258916,423.150518 16.7483789,423.576881 C17.1708663,424.003245 17.762508,424.217314 18.36,424.160002 Z M423.52,419.850002 C422.19,419.500002 421.33,420.400002 421.32,422.050002 C421.298485,422.841265 421.717529,423.5792 422.408081,423.966107 C423.098633,424.353015 423.946786,424.325076 424.610379,423.893561 C425.273971,423.462046 425.643542,422.698134 425.57,421.910002 C425.247473,420.939883 424.488538,420.177246 423.52,419.850002 Z M167.44,677.440002 C166.873024,677.437159 166.331486,677.675098 165.950092,678.094631 C165.568698,678.514165 165.383295,679.075862 165.44,679.640002 C165.44,681.010002 166.1,681.880002 168.3,681.860002 C168.63,681.430002 169.62,680.690002 169.7,679.860002 C169.79703,679.221865 169.596636,678.574418 169.156079,678.102672 C168.715523,677.630926 168.083274,677.386781 167.44,677.440002 L167.44,677.440002 Z M271.99,679.930002 C271.927409,680.541703 272.184962,681.142389 272.671205,681.51877 C273.157448,681.895151 273.803515,681.993918 274.38,681.780002 C275.24,681.590002 275.92,680.640002 277.21,679.590002 C275.84,678.590002 275.09,677.590002 274.21,677.490002 C272.76,677.330002 272.04,678.570002 272,679.930002 L271.99,679.930002 Z M18.35,463.930002 C19.82,463.560002 20.78,462.700002 20.35,461.260002 C20.35,460.155433 19.4545695,459.260002 18.35,459.260002 C17.2454305,459.260002 16.35,460.155433 16.35,461.260002 C15.85,462.720002 16.82,463.560002 18.36,463.930002 L18.35,463.930002 Z M20.29,620.170002 C19.9136263,619.33921 19.1419163,618.755722 18.24,618.620002 C17.3580451,618.831965 16.63654,619.463749 16.31,620.310002 C15.87,621.780002 16.88,622.590002 18.36,622.900002 C19.92,622.510002 20.8,621.570002 20.3,620.170002 L20.29,620.170002 Z M20.29,540.640002 C19.8960808,539.81777 19.1138085,539.24987 18.21,539.130002 C17.3297669,539.355372 16.6160319,539.998107 16.3,540.850002 C15.89,542.330002 16.9,543.120002 18.3,543.400002 C19.87,543.090002 20.8,542.150002 20.3,540.640002 L20.29,540.640002 Z M17.12,187.170002 C17.12,188.274572 18.0154305,189.170002 19.12,189.170002 C20.2245695,189.170002 21.12,188.274572 21.12,187.170002 C21.58,185.730002 20.65,184.860002 19.12,184.510002 C17.6,184.860002 16.64,185.720002 17.13,187.170002 L17.12,187.170002 Z M424.21,184.500002 C422.73,184.840002 421.76,185.690002 422.21,187.130002 C422.559569,187.981178 423.308998,188.603204 424.21,188.790002 C425.093718,188.61279 425.838098,188.021008 426.21,187.200002 C426.7,185.760002 425.77,184.880002 424.22,184.500002 L424.21,184.500002 Z M19.15,194.440002 C17.66,194.740002 16.68,195.560002 17.15,197.020002 C17.1058173,198.124572 17.9654306,199.055819 19.07,199.100002 C20.1745694,199.144185 21.1058171,198.284572 21.15,197.180002 C21.6,195.780002 20.72,194.830002 19.16,194.440002 L19.15,194.440002 Z M424.33,198.720002 C424.94,198.720002 426.01,197.720002 426.21,196.990002 C426.62,195.520002 425.62,194.710002 424.12,194.440002 C422.8,194.770002 421.74,195.560002 422.22,197.020002 C422.614795,197.892583 423.402487,198.524222 424.34,198.720002 L424.33,198.720002 Z M19.03,208.660002 C19.9306119,208.522551 20.7033083,207.944905 21.09,207.120002 C21.58,205.720002 20.72,204.770002 19.09,204.370002 C17.64,204.680002 16.64,205.490002 17.09,206.950002 C17.4104601,207.812082 18.1434543,208.454862 19.04,208.660002 L19.03,208.660002 Z M422.22,207.090002 C422.250376,208.194572 423.170431,209.065378 424.275,209.035002 C425.379569,209.004626 426.250375,208.084572 426.22,206.980002 C426.67,205.520002 425.69,204.690002 424.22,204.380002 C422.64,204.760002 421.74,205.680002 422.23,207.090002 L422.22,207.090002 Z M19.04,218.600002 C19.9413102,218.457135 20.7130434,217.876462 21.1,217.050002 C21.6,215.650002 20.73,214.700002 19.17,214.310002 C17.68,214.610002 16.68,215.430002 17.17,216.900002 C17.4876073,217.731745 18.1818411,218.362866 19.04,218.600002 Z M424.19,214.330002 C422.63,214.640002 421.73,215.610002 422.19,217.110002 C422.600415,217.927833 423.391993,218.486815 424.3,218.600002 C425.177862,218.358012 425.880717,217.70002 426.18,216.840002 C426.62,215.370002 425.61,214.570002 424.19,214.330002 L424.19,214.330002 Z M19.09,228.530002 C19.9817681,228.363557 20.7318603,227.763483 21.09,226.930002 C21.57,225.510002 20.65,224.610002 19.09,224.240002 C17.61,224.600002 16.62,225.430002 17.09,226.880002 C17.4377983,227.730584 18.1888248,228.350181 19.09,228.530002 L19.09,228.530002 Z M19.09,238.470002 C19.9802503,238.300253 20.7289698,237.701277 21.09,236.870002 C21.57,235.450002 20.65,234.550002 19.09,234.180002 C17.59,234.520002 16.62,235.360002 17.09,236.820002 C17.4377983,237.670584 18.1888248,238.290181 19.09,238.470002 L19.09,238.470002 Z M424.24,238.470002 C425.13881,238.285219 425.88778,237.667319 426.24,236.820002 C426.7,235.370002 425.73,234.530002 424.24,234.180002 C422.75,234.560002 421.8,235.440002 422.24,236.870002 C422.606645,237.696966 423.352723,238.293828 424.24,238.470002 L424.24,238.470002 Z M19.04,248.400002 C19.9392019,248.259195 20.7104876,247.682602 21.1,246.860002 C21.6,245.460002 20.73,244.520002 19.18,244.120002 C17.68,244.420002 16.69,245.240002 17.11,246.700002 C17.4353194,247.549092 18.1566398,248.184452 19.04,248.400002 L19.04,248.400002 Z M422.14,246.210002 C422.07,247.640002 422.82,248.630002 424.2,248.450002 C425.07,248.330002 425.84,247.450002 426.65,246.880002 C426.65,246.590002 426.65,246.300002 426.65,246.010002 C425.87,245.390002 425.15,244.400002 424.28,244.250002 C423.720902,244.155782 423.149588,244.324582 422.731473,244.707528 C422.313357,245.090475 422.095139,245.644798 422.14,246.210002 Z M17.14,256.730002 C17.14,257.834572 18.0354305,258.730002 19.14,258.730002 C20.2445695,258.730002 21.14,257.834572 21.14,256.730002 C21.6,255.290002 20.64,254.430002 19.14,254.080002 C17.59,254.430002 16.63,255.290002 17.14,256.730002 L17.14,256.730002 Z M424.21,258.340002 C425.101547,258.159712 425.848504,257.554676 426.21,256.720002 C426.7,255.280002 425.75,254.410002 424.21,254.060002 C422.68,254.400002 421.74,255.280002 422.21,256.710002 C422.560166,257.555073 423.311658,258.167539 424.21,258.340002 Z M19.03,268.270002 C19.9653971,268.063494 20.741536,267.414224 21.11,266.530002 C21.56,265.070002 20.51,264.280002 19.11,264.000002 C17.67,264.300002 16.67,265.110002 17.11,266.580002 C17.33,267.310002 18.44,268.330002 19.03,268.270002 L19.03,268.270002 Z M422.24,266.750002 C422.632588,267.572539 423.408478,268.146023 424.31,268.280002 C425.187172,268.055099 425.899836,267.41706 426.22,266.570002 C426.64,265.110002 425.65,264.280002 424.15,263.990002 C422.6,264.400002 421.73,265.350002 422.24,266.750002 Z M19.04,278.220002 C19.9413102,278.077135 20.7130434,277.496462 21.1,276.670002 C21.6,275.270002 20.72,274.320002 19.16,273.930002 C17.67,274.220002 16.69,275.050002 17.16,276.510002 C17.4699137,277.352745 18.1717427,277.991111 19.04,278.220002 L19.04,278.220002 Z M424.16,273.920002 C422.66,274.310002 421.74,275.210002 422.23,276.630002 C422.252091,277.734572 423.165431,278.612093 424.27,278.590002 C425.374569,278.567911 426.252091,277.654572 426.23,276.550002 C426.66,275.090002 425.7,274.250002 424.16,273.920002 Z M19.03,139.110002 C19.9315219,138.976023 20.7074115,138.402539 21.1,137.580002 C21.59,136.060002 20.65,135.130002 19.1,134.840002 C17.66,135.120002 16.66,135.930002 17.1,137.390002 C17.4169448,138.248837 18.1404817,138.893648 19.03,139.110002 Z M18.35,434.110002 C19.91,433.790002 20.81,432.820002 20.35,431.330002 C19.9424022,430.509752 19.1493445,429.949725 18.24,429.840002 C17.3644145,430.079998 16.6620145,430.733828 16.36,431.590002 C15.92,433.050002 16.93,433.850002 18.35,434.100002 L18.35,434.110002 Z M423.44,429.830002 C422.549101,430.005041 421.801273,430.607042 421.44,431.440002 C420.97,432.870002 421.9,433.760002 423.44,434.120002 C424.92,433.760002 425.9,432.920002 425.44,431.470002 C425.088051,430.624379 424.338183,430.009487 423.44,429.830002 L423.44,429.830002 Z M18.33,444.050002 C19.88,443.690002 20.79,442.780002 20.33,441.360002 C20.3134315,440.255433 19.4045695,439.373434 18.3,439.390002 C17.1954305,439.406571 16.3134315,440.315433 16.33,441.420002 C15.86,442.870002 16.84,443.710002 18.33,444.050002 Z M423.49,439.770002 C422.610402,439.929479 421.863903,440.508015 421.49,441.320002 C421,442.730002 421.88,443.660002 423.43,444.050002 C424.93,443.750002 425.91,442.910002 425.43,441.450002 C425.098838,440.605129 424.373527,439.977025 423.49,439.770002 Z M18.24,449.700002 C17.3598493,449.92357 16.6435725,450.561504 16.32,451.410002 C15.89,452.870002 16.87,453.690002 18.39,453.980002 C19.94,453.590002 20.8,452.640002 20.3,451.250002 C19.9130434,450.423542 19.1413102,449.842869 18.24,449.700002 L18.24,449.700002 Z M423.44,454.000002 C424.88,453.740002 425.87,452.920002 425.44,451.460002 C425.129653,450.602254 424.414183,449.95421 423.53,449.730002 C422.62849,449.856813 421.850888,450.427805 421.46,451.250002 C420.94,452.740002 421.88,453.670002 423.44,454.000002 Z M423.44,463.950002 C424.97,463.620002 425.92,462.770002 425.44,461.320002 C425.086334,460.473758 424.338032,459.856409 423.44,459.670002 C422.548232,459.836448 421.79814,460.436521 421.44,461.270002 C420.96,462.660002 421.88,463.560002 423.44,463.920002 L423.44,463.950002 Z M18.27,469.600002 C17.3880837,469.822223 16.6730763,470.466104 16.36,471.320002 C15.94,472.790002 16.94,473.590002 18.43,473.880002 C19.99,473.490002 20.84,472.530002 20.34,471.140002 C19.9487243,470.292466 19.1542166,469.701292 18.23,469.570002 L18.27,469.600002 Z M423.39,473.890002 C424.89,473.600002 425.89,472.790002 425.47,471.320002 C425.519706,470.215433 424.664569,469.279708 423.56,469.230002 C422.455431,469.180297 421.519706,470.035433 421.47,471.140002 C420.94,472.500002 421.8,473.460002 423.35,473.860002 L423.39,473.890002 Z M18.24,479.510002 C17.3582061,479.730469 16.6406813,480.369514 16.32,481.220002 C15.9,482.680002 16.88,483.510002 18.39,483.790002 C19.93,483.390002 20.81,482.450002 20.3,481.050002 C19.9090979,480.22854 19.1385039,479.652465 18.24,479.510002 L18.24,479.510002 Z M423.42,479.510002 C422.525542,479.690732 421.77748,480.300403 421.42,481.140002 C420.96,482.570002 421.9,483.450002 423.42,483.800002 C424.97,483.450002 425.9,482.570002 425.42,481.130002 C425.05969,480.302431 424.322532,479.699302 423.44,479.510002 L423.42,479.510002 Z M19.15,59.6200022 C20.0502162,59.4315725 20.7989724,58.8101049 21.15,57.9600022 C21.61,56.5200022 20.64,55.6700022 19.15,55.3300022 C17.61,55.7100022 16.67,56.5800022 17.15,58.0200022 C17.516645,58.846966 18.2627231,59.4438284 19.15,59.6200022 L19.15,59.6200022 Z M18.34,493.740002 C19.8,493.380002 20.78,492.540002 20.34,491.090002 C20.34,489.985433 19.4445695,489.090002 18.34,489.090002 C17.2354305,489.090002 16.34,489.985433 16.34,491.090002 C15.84,492.490002 16.79,493.360002 18.34,493.740002 Z M423.45,493.740002 C424.9,493.380002 425.89,492.550002 425.45,491.090002 C425.45,489.985433 424.554569,489.090002 423.45,489.090002 C422.345431,489.090002 421.45,489.985433 421.45,491.090002 C420.96,492.470002 421.88,493.370002 423.44,493.740002 L423.45,493.740002 Z M422.24,58.0900022 C422.628304,58.9160631 423.406366,59.4911525 424.31,59.6200022 C425.191916,59.3977812 425.906924,58.7539002 426.22,57.9000022 C426.64,56.4400022 425.65,55.6200022 424.22,55.3500022 C422.68,55.6400022 421.74,56.5700022 422.24,58.0900022 Z M18.24,499.390002 C17.62,499.390002 16.55,500.390002 16.34,501.100002 C15.92,502.560002 16.91,503.380002 18.34,503.650002 C19.73,503.370002 20.77,502.570002 20.34,501.110002 C19.9502426,500.229723 19.1617085,499.589969 18.22,499.390002 L18.24,499.390002 Z M425.44,501.000002 C425.076135,500.1709 424.328753,499.572994 423.44,499.400002 C422.540564,499.590048 421.792472,500.210964 421.44,501.060002 C420.99,502.500002 421.94,503.360002 423.44,503.690002 C424.96,503.290002 425.9,502.420002 425.44,501.000002 Z M18.35,513.610002 C19.82,513.240002 20.78,512.380002 20.35,510.940002 C19.9956829,510.099905 19.2453605,509.492144 18.35,509.320002 C17.4584534,509.500293 16.7114958,510.105328 16.35,510.940002 C15.85,512.390002 16.81,513.240002 18.35,513.610002 Z M423.35,513.610002 C424.85,513.310002 425.84,512.490002 425.4,511.030002 C425.441421,509.925433 424.579569,508.996424 423.475,508.955003 C422.370431,508.913581 421.441422,509.775433 421.4,510.880002 C420.95,512.270002 421.81,513.210002 423.37,513.600002 L423.35,513.610002 Z M19.01,69.6100022 C19.9324231,69.4574256 20.7171039,68.8529586 21.1,68.0000022 C21.6,66.6100022 20.74,65.6500022 19.18,65.2500022 C17.69,65.5400022 16.69,66.3600022 17.11,67.8200022 C17.4225555,68.6820398 18.1414534,69.333541 19.03,69.5600022 L19.01,69.6100022 Z M18.32,523.610002 C19.78,523.260002 20.76,522.420002 20.32,520.970002 C20.3365684,519.865433 19.4545694,518.956571 18.35,518.940002 C17.2454306,518.923434 16.3365686,519.805433 16.32,520.910002 C15.84,522.300002 16.78,523.160002 18.34,523.550002 L18.32,523.610002 Z M425.44,520.870002 C425.44,519.765433 424.544569,518.870002 423.44,518.870002 C422.335431,518.870002 421.44,519.765433 421.44,520.870002 C420.98,522.310002 421.92,523.170002 423.44,523.520002 C424.94,523.180002 425.9,522.310002 425.44,520.870002 Z M18.33,529.190002 C17.4333714,529.372763 16.6848571,529.986545 16.33,530.830002 C15.85,532.280002 16.81,533.140002 18.33,533.470002 C19.84,533.120002 20.75,532.220002 20.33,530.800002 C19.9629274,529.959337 19.202171,529.355978 18.3,529.190002 L18.33,529.190002 Z M425.44,530.890002 C425.481421,529.785433 424.619569,528.856424 423.515,528.815002 C422.410431,528.773581 421.481421,529.635433 421.44,530.740002 C420.94,532.140002 421.82,533.080002 423.37,533.470002 C424.87,533.180002 425.85,532.350002 425.44,530.890002 Z M424.31,69.5600022 C425.188574,69.3315428 425.901068,68.6899247 426.22,67.8400022 C426.64,66.3700022 425.65,65.5600022 424.15,65.2700022 C422.59,65.6700022 421.73,66.6300022 422.24,68.0200022 C422.632839,68.8440935 423.40777,69.4206117 424.31,69.5600022 L424.31,69.5600022 Z M423.31,543.410002 C424.81,543.130002 425.79,542.310002 425.37,540.840002 C425.419706,539.735433 424.564569,538.799708 423.46,538.750002 C422.355431,538.700297 421.419706,539.555433 421.37,540.660002 C420.94,542.060002 421.8,543.000002 423.36,543.410002 L423.31,543.410002 Z M18.17,549.070002 C17.55,549.020002 16.48,550.070002 16.27,550.780002 C15.85,552.250002 16.85,553.050002 18.35,553.350002 C19.65,553.030002 20.73,552.260002 20.26,550.790002 C19.8864319,549.929169 19.131582,549.292726 18.22,549.070002 L18.17,549.070002 Z M423.35,549.070002 C422.451032,549.247826 421.700474,549.863283 421.35,550.710002 C420.89,552.150002 421.85,553.010002 423.35,553.350002 C424.86,552.980002 425.81,552.120002 425.35,550.670002 C425.006669,549.861297 424.296363,549.266276 423.44,549.070002 L423.35,549.070002 Z M20.25,560.540002 C19.8729723,559.728201 19.1219457,559.152787 18.24,559.000002 C17.3582061,559.220469 16.6406813,559.859514 16.32,560.710002 C15.9,562.170002 16.88,563.000002 18.39,563.280002 C19.93,562.880002 20.81,561.940002 20.3,560.540002 L20.25,560.540002 Z M423.44,563.280002 C424.99,562.940002 425.92,562.060002 425.44,560.620002 C425.44,559.515433 424.544569,558.620002 423.44,558.620002 C422.335431,558.620002 421.44,559.515433 421.44,560.620002 C420.97,562.060002 421.91,562.940002 423.44,563.280002 Z M18.36,573.220002 C19.89,572.860002 20.82,571.970002 20.36,570.540002 C20.0018603,569.706521 19.2517681,569.106448 18.36,568.940002 C17.4618172,569.119487 16.7119492,569.734379 16.36,570.580002 C15.86,572.000002 16.83,572.870002 18.33,573.220002 L18.36,573.220002 Z M423.44,568.940002 C422.539619,569.121494 421.789287,569.740517 421.44,570.590002 C420.99,572.030002 421.94,572.890002 423.44,573.220002 C424.97,572.850002 425.9,571.970002 425.44,570.530002 C425.077792,569.701489 424.328846,569.106077 423.44,568.940002 L423.44,568.940002 Z M17.13,77.8700022 C17.13,78.9745717 18.0254305,79.8700022 19.13,79.8700022 C20.2345695,79.8700022 21.13,78.9745717 21.13,77.8700022 C21.59,76.4300022 20.64,75.5700022 19.13,75.2100022 C17.6,75.5700022 16.64,76.4300022 17.13,77.8700022 Z M423.44,578.870002 C422.547587,579.041782 421.798413,579.644867 421.44,580.480002 C420.96,581.900002 421.88,582.800002 423.44,583.160002 C424.96,582.820002 425.92,581.970002 425.44,580.520002 C425.08778,579.672686 424.33881,579.054786 423.44,578.870002 Z M18.23,588.810002 C17.3528277,589.034905 16.6401642,589.672944 16.32,590.520002 C15.9,591.990002 16.9,592.800002 18.32,593.080002 C19.86,592.780002 20.8,591.850002 20.32,590.340002 C19.9308931,589.506089 19.1425069,588.928945 18.23,588.810002 L18.23,588.810002 Z M423.37,593.090002 C424.87,592.790002 425.86,591.970002 425.42,590.510002 C425.101042,589.660326 424.382049,589.023717 423.5,588.810002 C422.595817,588.946059 421.821208,589.528895 421.44,590.360002 C420.95,591.750002 421.81,592.700002 423.37,593.090002 L423.37,593.090002 Z M424.17,75.2000022 C422.63,75.6000022 421.74,76.5200022 422.23,77.9300022 C422.618004,78.7532283 423.383134,79.3354738 424.28,79.4900022 C425.163527,79.2829796 425.888838,78.6548752 426.22,77.8100022 C426.66,76.3500022 425.67,75.5200022 424.17,75.2000022 L424.17,75.2000022 Z M19.09,89.4300022 C19.9787534,89.2570104 20.7261353,88.6591048 21.09,87.8300022 C21.58,86.4000022 20.66,85.5100022 19.09,85.1400022 C17.62,85.4900022 16.62,86.3200022 17.09,87.7700022 C17.4366097,88.6233488 18.1874092,89.2465124 19.09,89.4300022 L19.09,89.4300022 Z M422.14,87.2800022 C422.14,88.7200022 422.88,89.6800022 424.25,89.4700022 C425.11,89.3400022 425.86,88.4100022 426.66,87.8400022 L426.66,87.0000022 C425.87,86.4000022 425.13,85.4400022 424.26,85.3000022 C423.700278,85.2115547 423.131023,85.3859447 422.716888,85.7727311 C422.302753,86.1595175 422.089939,86.7155508 422.14,87.2800022 L422.14,87.2800022 Z M18.34,603.000002 C19.8,602.640002 20.78,601.800002 20.34,600.360002 C20.3565684,599.255433 19.4745694,598.346571 18.37,598.330002 C17.2654306,598.313434 16.3565686,599.195433 16.34,600.300002 C15.84,601.790002 16.78,602.650002 18.34,603.000002 Z M21.56,96.9000022 C20.79,96.2900022 20.08,95.3000022 19.22,95.1600022 C18.618408,95.0537059 18.0024,95.2431635 17.5645177,95.6691576 C17.1266354,96.0951517 16.9202983,96.705713 17.01,97.3100022 C17.01,98.5800022 17.77,99.5900022 19.08,99.3700022 C19.96,99.2300022 20.72,98.3700022 21.53,97.8500022 L21.56,96.9000022 Z M424.3,99.3200022 C425.183461,99.1026958 425.902266,98.4625102 426.22,97.6100022 C426.64,96.1500022 425.66,95.3300022 424.22,95.0500022 C422.69,95.3400022 421.74,96.2700022 422.22,97.7900022 C422.599689,98.6342322 423.38403,99.2262591 424.3,99.3600022 L424.3,99.3200022 Z M425.41,600.320002 C425.41,599.215433 424.514569,598.320002 423.41,598.320002 C422.305431,598.320002 421.41,599.215433 421.41,600.320002 C420.95,601.760002 421.89,602.630002 423.41,602.980002 C424.95,602.680002 425.89,601.800002 425.44,600.360002 L425.41,600.320002 Z M19.16,109.300002 C20.0435149,109.094784 20.7713589,108.471451 21.11,107.630002 C21.56,106.180002 20.59,105.340002 19.11,105.010002 C17.58,105.400002 16.64,106.270002 17.11,107.710002 C17.4889743,108.545905 18.2560974,109.140894 19.16,109.300002 L19.16,109.300002 Z M422.23,107.700002 C422.59103,108.531277 423.33975,109.130253 424.23,109.300002 C425.12881,109.115219 425.87778,108.497319 426.23,107.650002 C426.69,106.210002 425.73,105.350002 424.23,105.010002 C422.68,105.380002 421.75,106.270002 422.23,107.700002 L422.23,107.700002 Z M19.16,115.000002 C17.67,115.300002 16.69,116.120002 17.16,117.580002 C17.1314188,118.294533 17.4862064,118.970035 18.090718,119.352053 C18.6952295,119.734071 19.4576252,119.764567 20.090718,119.432053 C20.7238107,119.09954 21.1314188,118.454533 21.16,117.740002 C21.6,116.290002 20.72,115.340002 19.16,115.000002 Z M424.16,115.000002 C422.7,115.370002 421.74,116.220002 422.16,117.660002 C422.16,118.764572 423.055431,119.660002 424.16,119.660002 C425.264569,119.660002 426.16,118.764572 426.16,117.660002 C426.69,116.170002 425.75,115.300002 424.18,114.940002 L424.16,115.000002 Z M18.36,613.000002 C19.87,612.650002 20.78,611.740002 20.36,610.320002 C20.3461929,609.215433 19.4395695,608.331195 18.335,608.345002 C17.2304305,608.358809 16.3461929,609.265433 16.36,610.370002 C15.87,611.780002 16.82,612.630002 18.36,613.000002 Z M423.44,613.000002 C424.89,612.670002 425.9,611.860002 425.44,610.400002 C425.11346,609.553749 424.391955,608.921965 423.51,608.710002 C422.62757,608.869937 421.879969,609.453066 421.51,610.270002 C420.94,611.650002 421.83,612.570002 423.44,613.000002 Z M17.14,127.570002 C17.14,128.674572 18.0354305,129.570002 19.14,129.570002 C20.2445695,129.570002 21.14,128.674572 21.14,127.570002 C21.6,126.120002 20.64,125.270002 19.14,124.930002 C17.58,125.250002 16.64,126.130002 17.14,127.570002 Z M424.19,124.870002 C422.75,125.240002 421.76,126.070002 422.19,127.520002 C422.19,128.624572 423.085431,129.520002 424.19,129.520002 C425.294569,129.520002 426.19,128.624572 426.19,127.520002 C426.7,126.130002 425.76,125.250002 424.19,124.870002 Z M424.19,134.820002 C422.68,135.170002 421.73,136.040002 422.19,137.480002 C422.19,138.584572 423.085431,139.480002 424.19,139.480002 C425.294569,139.480002 426.19,138.584572 426.19,137.480002 C426.69,136.000002 425.74,135.180002 424.22,134.820002 L424.19,134.820002 Z M17.1,147.420002 C17.1,148.524572 17.9954305,149.420002 19.1,149.420002 C20.2045695,149.420002 21.1,148.524572 21.1,147.420002 C21.56,145.990002 20.62,145.120002 19.1,144.770002 C17.59,145.110002 16.65,146.000002 17.13,147.420002 L17.1,147.420002 Z M423.44,622.900002 C424.98,622.550002 425.91,621.670002 425.44,620.230002 C425.084503,619.392659 424.333948,618.788462 423.44,618.620002 C422.544776,618.79911 421.796045,619.409325 421.44,620.250002 C420.97,621.690002 421.92,622.550002 423.44,622.900002 Z M422.24,147.560002 C422.645843,148.38009 423.440728,148.93764 424.35,149.040002 C425.228193,148.804701 425.932481,148.149114 426.23,147.290002 C426.61,145.820002 425.61,145.020002 424.17,144.770002 C422.63,145.090002 421.73,146.060002 422.24,147.560002 Z M18.3,628.560002 C17.4011901,628.744786 16.6522204,629.362686 16.3,630.210002 C15.83,631.660002 16.8,632.500002 18.3,632.850002 C19.83,632.490002 20.75,631.590002 20.3,630.170002 C19.9385042,629.335328 19.1915466,628.730293 18.3,628.550002 L18.3,628.560002 Z M423.42,628.560002 C422.526944,628.737079 421.778666,629.343184 421.42,630.180002 C420.96,631.620002 421.9,632.490002 423.42,632.840002 C424.96,632.490002 425.91,631.620002 425.42,630.170002 C425.066889,629.3389 424.325652,628.736178 423.44,628.560002 L423.42,628.560002 Z M20.31,640.130002 C20.31,639.025433 19.4145695,638.130002 18.31,638.130002 C17.2054305,638.130002 16.31,639.025433 16.31,640.130002 C15.82,641.570002 16.75,642.450002 18.31,642.800002 C19.82,642.430002 20.78,641.570002 20.31,640.130002 Z M423.5,638.490002 C422.6057,638.621273 421.83435,639.18668 421.44,640.000002 C420.95,641.400002 421.82,642.350002 423.44,642.750002 C424.91,642.440002 425.91,641.620002 425.44,640.160002 C425.104747,639.320004 424.380523,638.696574 423.5,638.490002 L423.5,638.490002 Z M19.12,154.690002 C17.62,155.040002 16.65,155.890002 17.12,157.340002 C17.12,158.444572 18.0154305,159.340002 19.12,159.340002 C20.2245695,159.340002 21.12,158.444572 21.12,157.340002 C21.58,156.000002 20.65,155.060002 19.12,154.690002 Z M424.17,224.240002 C422.73,224.610002 421.75,225.460002 422.23,226.900002 C422.23,228.004572 423.125431,228.900002 424.23,228.900002 C425.334569,228.900002 426.23,228.004572 426.23,226.900002 C426.69,225.470002 425.74,224.600002 424.17,224.240002 Z M424.17,154.710002 C422.78,154.990002 421.73,155.790002 422.17,157.250002 C422.544227,158.130055 423.324386,158.772099 424.26,158.970002 C424.87,159.020002 425.95,157.970002 426.16,157.270002 C426.64,155.810002 425.65,155.000002 424.21,154.710002 L424.17,154.710002 Z M19.14,164.640002 C17.7,164.920002 16.7,165.730002 17.14,167.190002 C17.4562543,168.043771 18.1691952,168.689524 19.05,168.920002 C19.9543475,168.792896 20.7331531,168.217257 21.12,167.390002 C21.6,165.880002 20.66,165.000002 19.14,164.640002 Z M422.14,166.750002 C422.09,168.190002 422.85,169.160002 424.23,168.960002 C425.1,168.830002 425.85,167.960002 426.66,167.360002 L426.66,166.480002 C425.87,165.880002 425.14,164.900002 424.27,164.760002 C423.706832,164.667485 423.132613,164.841533 422.715582,165.231153 C422.298552,165.620773 422.085925,166.181852 422.14,166.750002 Z M19.14,174.570002 C17.63,174.890002 16.66,175.730002 17.14,177.190002 C17.1179086,178.294572 17.9954305,179.207911 19.1,179.230002 C20.2045695,179.252094 21.1179086,178.374572 21.14,177.270002 C21.59,175.850002 20.68,175.000002 19.15,174.570002 L19.14,174.570002 Z M424.24,174.570002 C422.75,174.890002 421.77,175.710002 422.24,177.170002 C422.209624,178.274572 423.080431,179.194627 424.185,179.225002 C425.289569,179.255378 426.209624,178.384572 426.24,177.280002 C426.71,175.850002 425.79,175.000002 424.25,174.570002 L424.24,174.570002 Z M20.3,580.420002 C19.9149732,579.596169 19.1475784,579.015944 18.25,578.870002 C17.3682671,579.088665 16.6482021,579.722919 16.32,580.570002 C15.89,582.030002 16.88,582.850002 18.37,583.150002 C19.93,582.760002 20.8,581.820002 20.3,580.420002 Z M78,20.4200022 C79.42,20.9800022 80.3,20.0200022 80.78,18.4800022 C80.42,17.1100022 79.69,16.0300022 78.2,16.4800022 C77.3567962,16.7947777 76.7190955,17.4996049 76.49,18.3700022 C76.6365387,19.2456833 77.1997641,19.9954072 78,20.3800022 L78,20.4200022 Z M385.23,20.4200022 C386.032206,20.0015732 386.585984,19.2247967 386.72,18.3300022 C386.553401,17.4921804 385.973709,16.7957975 385.18,16.4800022 C383.63,16.0100022 382.76,16.9800022 382.45,18.4800022 C382.83,19.9000022 383.68,20.9400022 385.23,20.3800022 L385.23,20.4200022 Z M375.17,20.4200022 C376.004043,20.0601526 376.606583,19.3116559 376.78,18.4200022 C376.613225,17.5252784 376.008461,16.7740189 375.17,16.4200022 C373.73,15.9400022 372.87,16.9000022 372.51,18.4200022 C372.9,19.8700022 373.72,20.8900022 375.17,20.4100022 L375.17,20.4200022 Z M365.35,20.4200022 C366.155668,20.0085461 366.713968,19.2343691 366.85,18.3400022 C366.679697,17.5016325 366.101872,16.8037399 365.31,16.4800022 C363.77,16.0100022 362.89,16.9700022 362.58,18.5300022 C362.98,19.8800022 363.8,21.0000022 365.35,20.3800022 L365.35,20.4200022 Z M355.41,20.4200022 C356.214566,20.0072632 356.772403,19.2337288 356.91,18.3400022 C356.748453,17.5006448 356.172443,16.8003969 355.38,16.4800022 C353.85,16.0100022 352.96,16.9600022 352.65,18.4800022 C353.02,19.8900022 353.86,20.9300022 355.44,20.3800022 L355.41,20.4200022 Z M345.36,20.4200022 C346.194043,20.0601526 346.796583,19.3116559 346.97,18.4200022 C346.796583,17.5283485 346.194043,16.7798518 345.36,16.4200022 C343.93,15.9400022 343.07,16.9000022 342.7,18.4200022 C343.09,19.8800022 343.92,20.8900022 345.36,20.4100022 L345.36,20.4200022 Z M335.54,20.4200022 C336.346778,20.0098412 336.905548,19.2350135 337.04,18.3400022 C336.869697,17.5016325 336.291872,16.8037399 335.5,16.4800022 C333.96,16.0100022 333.08,16.9700022 332.77,18.4800022 C333.15,19.9000022 334,20.9400022 335.54,20.3800022 L335.54,20.4200022 Z M68.16,20.4200022 C69.61,20.9000022 70.43,19.8900022 70.83,18.4200022 C70.46,16.8900022 69.6,15.9300022 68.16,16.4200022 C67.3287253,16.7810324 66.7297496,17.529752 66.56,18.4200022 C66.7311328,19.3072497 67.3301985,20.0523377 68.16,20.4100022 L68.16,20.4200022 Z M325.51,20.4200022 C326.335758,20.0566198 326.927607,19.3074431 327.09,18.4200022 C326.919535,17.5238628 326.311207,16.772841 325.47,16.4200022 C324.02,15.9500022 323.19,16.9200022 322.83,18.4200022 C323.24,19.8900022 324.06,20.9000022 325.51,20.4000022 L325.51,20.4200022 Z M384.29,677.710002 C382.84,677.260002 382.02,678.270002 381.65,679.710002 C382.03,681.250002 382.92,682.180002 384.34,681.710002 C385.444569,681.710002 386.34,680.814572 386.34,679.710002 C386.34,678.605433 385.444569,677.710002 384.34,677.710002 L384.29,677.710002 Z M87.93,20.3800022 C89.48,20.9300022 90.32,19.8900022 90.69,18.4500022 C90.37,16.9200022 89.48,15.9700022 87.94,16.4500022 C87.1635695,16.7843145 86.6022342,17.4803703 86.44,18.3100022 C86.5753331,19.1992816 87.129666,19.969395 87.93,20.3800022 Z M58.21,20.3800022 C59.66,20.8800022 60.48,19.8700022 60.89,18.4400022 C60.53,16.9200022 59.69,15.9500022 58.25,16.4400022 C57.4082373,16.7945993 56.7974702,17.5440068 56.62,18.4400022 C56.8027554,19.3115901 57.3948307,20.0414439 58.21,20.4000022 L58.21,20.3800022 Z M315.59,20.3800022 C316.408613,20.009819 316.994785,19.2631031 317.16,18.3800022 C316.977239,17.4833736 316.363458,16.7348594 315.52,16.3800022 C314.06,15.9200022 313.25,16.9200022 312.88,18.3800022 C313.32,19.9000022 314.14,20.9200022 315.59,20.4000022 L315.59,20.3800022 Z M305.71,20.3800022 C306.523322,19.9856522 307.088729,19.2143022 307.22,18.3200022 C306.998876,17.4463816 306.363751,16.7365355 305.52,16.4200022 C304.04,15.9800022 303.28,17.0300022 302.95,18.4200022 C303.44,20.0000022 304.28,20.9300022 305.71,20.3900022 L305.71,20.3800022 Z M295.76,20.3800022 C296.562125,19.9983854 297.131554,19.2540333 297.29,18.3800022 C297.070686,17.5064455 296.440351,16.7940549 295.6,16.4700022 C294.13,16.0300022 293.35,17.0500022 293.02,18.4700022 C293.44,20.0000022 294.33,20.9300022 295.76,20.3900022 L295.76,20.3800022 Z M285.9,20.3800022 C286.696989,19.9516249 287.240021,19.1668324 287.36,18.2700022 C287.173015,17.4361807 286.579286,16.7522656 285.78,16.4500022 C284.22,15.9900022 283.38,16.9900022 283.09,18.4500022 C283.49,19.9400022 284.37,21.0000022 285.9,20.3700022 L285.9,20.3800022 Z M157.58,20.3800022 C159.03,20.8700022 159.86,19.8600022 160.25,18.3800022 C159.89,16.8600022 159.04,15.8900022 157.6,16.3800022 C156.759903,16.7343193 156.152142,17.4846417 155.98,18.3800022 C156.145585,19.2792767 156.7443,20.0388965 157.58,20.4100022 L157.58,20.3800022 Z M147.53,20.3800022 C149.07,20.9400022 149.93,19.9000022 150.3,18.4600022 C150,16.9400022 149.12,15.9700022 147.58,16.4600022 C146.786291,16.7757975 146.206599,17.4721804 146.04,18.3100022 C146.181482,19.1967594 146.73401,19.9643647 147.53,20.3800022 L147.53,20.3800022 Z M137.63,20.3800022 C139.06,20.9200022 139.92,19.9500022 140.38,18.4800022 C140.06,17.0100022 139.28,15.9800022 137.81,16.4200022 C136.964806,16.7399512 136.32979,17.4534105 136.11,18.3300022 C136.24501,19.2257048 136.813972,19.9967986 137.63,20.3900022 L137.63,20.3800022 Z M127.78,20.3800022 C129.23,20.8600022 130.05,19.8500022 130.45,18.3800022 C130.08,16.8500022 129.22,15.8900022 127.78,16.3800022 C126.943765,16.736964 126.340128,17.4868242 126.17,18.3800022 C126.33431,19.2829286 126.93822,20.0443796 127.78,20.4100022 L127.78,20.3800022 Z M117.78,20.3800022 C119.21,20.9100022 120.08,19.9400022 120.53,18.4700022 C120.19,17.0200022 119.42,15.9700022 117.95,16.4700022 C117.109649,16.7940549 116.479314,17.5064455 116.26,18.3800022 C116.407588,19.2522729 116.9658,20.000278 117.76,20.3900022 L117.78,20.3800022 Z M57.38,677.710002 C56.2754305,677.748662 55.4113401,678.675433 55.45,679.780002 C55.4886599,680.884572 56.4154305,681.748662 57.52,681.710002 C58.99,682.150002 59.78,681.140002 60.12,679.650002 C59.65,678.170002 58.8,677.190002 57.36,677.720002 L57.38,677.710002 Z M67.38,677.710002 C66.2754305,677.710002 65.38,678.605433 65.38,679.710002 C65.38,680.814572 66.2754305,681.710002 67.38,681.710002 C68.81,682.190002 69.68,681.230002 70.06,679.710002 C69.63,678.250002 68.83,677.220002 67.38,677.700002 L67.38,677.710002 Z M77.18,677.710002 C76.3766916,678.127163 75.8224575,678.904579 75.69,679.800002 C75.8669706,680.636009 76.4478992,681.329375 77.24,681.650002 C78.79,682.120002 79.65,681.140002 79.96,679.650002 C79.58,678.200002 78.72,677.160002 77.18,677.730002 L77.18,677.710002 Z M87.18,677.710002 C86.3686151,678.111757 85.8047851,678.884689 85.67,679.780002 C85.8299034,680.619311 86.4010663,681.321991 87.19,681.650002 C88.72,682.120002 89.62,681.170002 89.94,679.650002 C89.52,678.230002 88.68,677.180002 87.14,677.730002 L87.18,677.710002 Z M97.06,677.710002 C96.2630105,678.138379 95.7199787,678.923172 95.6,679.820002 C95.7935264,680.650502 96.3849212,681.331729 97.18,681.640002 C98.75,682.090002 99.58,681.090002 99.87,679.640002 C99.44,678.170002 98.55,677.150002 97.02,677.740002 L97.06,677.710002 Z M107.06,677.710002 C106.251401,678.117157 105.686402,678.886597 105.54,679.780002 C105.698529,680.62229 106.269588,681.328599 107.06,681.660002 C108.59,682.130002 109.49,681.190002 109.8,679.660002 C109.44,678.220002 108.57,677.170002 107.02,677.720002 L107.06,677.710002 Z M117,677.710002 C115.895431,677.759708 115.040295,678.695433 115.09,679.800002 C115.139706,680.904572 116.075431,681.759708 117.18,681.710002 C118.66,682.150002 119.42,681.110002 119.76,679.650002 C119.25,678.150002 118.44,677.180002 116.96,677.720002 L117,677.710002 Z M127,677.710002 C125.895431,677.729332 125.01567,678.640433 125.035,679.745002 C125.05433,680.849572 125.965431,681.729332 127.07,681.710002 C128.53,682.180002 129.35,681.180002 129.7,679.710002 C129.22,678.210002 128.44,677.190002 126.95,677.710002 L127,677.710002 Z M136.95,677.710002 C136.122007,678.070488 135.529058,678.821057 135.37,679.710002 C135.544148,680.607556 136.15604,681.358344 137,681.710002 C138.44,682.180002 139.28,681.200002 139.63,679.710002 C139.18,678.210002 138.34,677.210002 136.9,677.710002 L136.95,677.710002 Z M146.89,677.710002 C145.785431,677.710002 144.89,678.605433 144.89,679.710002 C144.89,680.814572 145.785431,681.710002 146.89,681.710002 C148.34,682.180002 149.17,681.200002 149.54,679.710002 C149.1,678.220002 148.29,677.200002 146.84,677.700002 L146.89,677.710002 Z M156.76,677.710002 C155.958487,678.090121 155.391637,678.835977 155.24,679.710002 C155.454875,680.588165 156.086207,681.305418 156.93,681.630002 C158.4,682.070002 159.18,681.040002 159.51,679.630002 C159.01,678.150002 158.15,677.180002 156.71,677.720002 L156.76,677.710002 Z M107.77,20.3700022 C109.31,20.9500022 110.17,19.9200022 110.56,18.4700022 C110.26,16.9600022 109.41,15.9700022 107.85,16.4700022 C107.057206,16.7842403 106.475017,17.475355 106.3,18.3100022 C106.434031,19.1915658 106.979937,19.9565781 107.77,20.3700022 Z M98.05,20.4300022 C99.51,20.8500022 100.3,19.8100022 100.63,18.4300022 C100.23,16.8500022 99.29,15.9800022 97.89,16.4800022 C97.0873901,16.8587692 96.5200402,17.6052822 96.37,18.4800022 C96.5675673,19.3705991 97.1984317,20.1028524 98.05,20.4300022 L98.05,20.4300022 Z M285.05,677.730002 C283.51,677.160002 282.65,678.190002 282.27,679.650002 C282.57,681.160002 283.44,682.130002 284.99,681.650002 C285.781495,681.331162 286.360004,680.636199 286.53,679.800002 C286.401742,678.919315 285.863865,678.151449 285.08,677.730002 L285.05,677.730002 Z M294.88,677.730002 C293.43,677.230002 292.6,678.240002 292.19,679.670002 C292.55,681.190002 293.39,682.170002 294.84,681.670002 C295.944569,681.670002 296.84,680.774572 296.84,679.670002 C296.84,678.565433 295.944569,677.670002 294.84,677.670002 L294.88,677.730002 Z M304.88,677.730002 C303.44,677.230002 302.59,678.200002 302.17,679.670002 C302.52,681.150002 303.33,682.150002 304.79,681.670002 C305.894569,681.694855 306.810147,680.819572 306.835,679.715002 C306.859853,678.610433 305.984569,677.694855 304.88,677.670002 L304.88,677.730002 Z M314.88,677.730002 C313.46,677.180002 312.58,678.140002 312.1,679.670002 C312.46,681.040002 313.18,682.130002 314.68,681.670002 C315.521318,681.355433 316.155993,680.649824 316.38,679.780002 C316.246661,678.883609 315.677181,678.111813 314.86,677.720002 L314.88,677.730002 Z M324.75,677.730002 C323.32,677.220002 322.47,678.210002 322.05,679.670002 C322.41,681.160002 323.22,682.150002 324.68,681.670002 C325.784569,681.689332 326.69567,680.809572 326.715,679.705002 C326.73433,678.600433 325.854569,677.689332 324.75,677.670002 L324.75,677.730002 Z M334.75,677.730002 C333.22,677.150002 332.34,678.170002 331.95,679.670002 C332.27,681.120002 333.11,682.130002 334.67,681.670002 C335.462794,681.355764 336.044983,680.664649 336.22,679.830002 C336.102434,678.940096 335.56241,678.161716 334.77,677.740002 L334.75,677.730002 Z M344.66,677.730002 C343.12,677.170002 342.27,678.210002 341.88,679.730002 C342.23,681.180002 343.07,682.180002 344.63,681.730002 C345.41801,681.403598 345.991701,680.70617 346.16,679.870002 C346.048185,678.956849 345.494938,678.156884 344.68,677.730002 L344.66,677.730002 Z M354.58,677.730002 C353.16,677.180002 352.28,678.140002 351.82,679.630002 C352.14,681.070002 352.9,682.120002 354.38,681.690002 C355.226606,681.3747 355.86531,680.665029 356.09,679.790002 C355.965985,678.896148 355.408265,678.121329 354.6,677.720002 L354.58,677.730002 Z M364.39,677.730002 C362.94,677.270002 362.13,678.290002 361.75,679.730002 C362.15,681.250002 363.02,682.200002 364.45,681.730002 C365.268202,681.356918 365.85642,680.612338 366.03,679.730002 C365.869493,678.829116 365.274423,678.06563 364.44,677.690002 L364.39,677.730002 Z M374.39,677.730002 C372.94,677.260002 372.12,678.280002 371.73,679.730002 C372.11,681.260002 372.97,682.220002 374.4,681.730002 C375.504569,681.730002 376.4,680.834572 376.4,679.730002 C376.4,678.625433 375.504569,677.730002 374.4,677.730002 L374.39,677.730002 Z M160.95,616.770002 C160.88,618.290002 161.95,618.770002 163.25,618.990002 C164.08,619.110002 164.92,619.140002 165.73,619.220002 L165.73,626.930002 C165.73,629.770002 166.38,631.040002 167.9,630.870002 C170.28,630.600002 169.98,628.650002 170.02,627.050002 C170.08,624.290002 170.02,621.540002 170.02,618.620002 L178.42,618.240002 L178.42,629.390002 C178.42,630.900002 178.7,632.390002 180.53,632.390002 C182.36,632.390002 182.53,631.010002 182.62,629.570002 C182.89,620.570002 183.18,611.570002 183.43,602.570002 C183.489108,601.777745 183.387054,600.981726 183.13,600.230002 C182.92,599.720002 182.22,599.060002 181.77,599.080002 C181.091971,599.169922 180.493783,599.568714 180.15,600.160002 C179.822141,601.023247 179.646209,601.936736 179.63,602.860002 C179.3,606.540002 179.01,610.220002 178.72,613.860002 L170.58,613.860002 C170.44,608.090002 170.85,602.440002 168.8,596.930002 C168.145278,597.214816 167.625818,597.74144 167.35,598.400002 C167.116281,599.359538 166.992154,600.342487 166.98,601.330002 C166.8,605.680002 166.66,610.020002 166.5,614.500002 C165.22,614.640002 164.24,614.760002 163.27,614.840002 C162.04,614.940002 161.01,615.360002 160.95,616.770002 Z M190.36,629.330002 C190.42,631.740002 191.22,632.440002 193.61,632.050002 C197.2,631.450002 200.77,630.730002 204.34,630.050002 C204.53,630.050002 204.8,629.990002 204.9,629.860002 C205.47,629.090002 206.53,628.200002 206.41,627.520002 C206.29,626.840002 205.06,626.110002 204.19,625.880002 C203.269014,625.775339 202.336279,625.877837 201.46,626.180002 C199.22,626.660002 196.99,627.180002 194.76,627.720002 L194.76,617.800002 C198.29,616.300002 202.4,617.600002 205.57,614.510002 C202.47,610.220002 198.3,612.840002 194.52,612.360002 L194.52,600.500002 C194.99,600.560002 195.38,600.640002 195.77,600.650002 C198.41,600.700002 201.05,600.830002 203.68,600.650002 C204.31,600.650002 205.41,599.650002 205.38,599.170002 C205.234699,598.301937 204.715532,597.541467 203.96,597.090002 C203.04004,596.719239 202.050705,596.552075 201.06,596.600002 C199.06,596.510002 197.06,596.530002 195.06,596.510002 C191.44,596.510002 190.79,597.070002 190.7,600.690002 C190.54,607.440002 189.81,614.180002 190.27,620.950002 C190.49,623.760002 190.29,626.550002 190.36,629.330002 L190.36,629.330002 Z M263.09,627.200002 C264.97,631.790002 271.53,632.530002 274.02,628.470002 C275.26728,626.615972 276.300533,624.626624 277.1,622.540002 C278.597218,617.655034 279.023572,612.504672 278.35,607.440002 C278.097806,604.015977 276.344327,600.878752 273.56,598.870002 C272.025934,597.629201 269.995412,597.187032 268.084319,597.677611 C266.173226,598.168191 264.606741,599.533715 263.86,601.360002 C263.534346,601.992652 263.292318,602.664952 263.14,603.360002 C262.39,607.770002 261.69,612.190002 260.98,616.610002 L261.48,616.680002 C261.2171,620.263187 261.767479,623.859453 263.09,627.200002 L263.09,627.200002 Z M265.36,618.060002 C265.58,613.450002 266.01,608.850002 266.47,604.260002 C266.718817,602.961083 267.08018,601.686275 267.55,600.450002 C273.43,602.060002 274.7,606.200002 274.65,611.240002 C274.65,615.780002 274.15,620.240002 271.83,624.240002 C271.08,625.530002 270.33,627.630002 268.48,626.970002 C267.39,626.580002 266.48,624.830002 266.09,623.510002 C265.533987,621.749073 265.287007,619.905183 265.36,618.060002 Z M248.74,630.750002 C251.41,631.220002 253.26,629.980002 254.59,627.890002 C255.578478,626.488892 256.337954,624.93956 256.84,623.300002 C257.6,620.240002 257.98,617.080002 258.38,614.760002 C258.1,611.920002 258.09,609.910002 257.68,607.980002 C256.88,604.220002 256.08,600.370002 252.29,598.250002 C251.646557,597.807108 250.867554,597.605276 250.09,597.680002 C246.97,598.680002 244.23,600.150002 243.09,603.680002 C240.815209,610.929315 240.745597,618.691055 242.89,625.980002 C243.71,628.810002 245.9,630.240002 248.74,630.750002 Z M246.91,604.090002 C247.49,601.910002 248.06,601.540002 250.49,600.860002 C251.438686,601.923259 252.248498,603.102695 252.9,604.370002 C255.16,610.570002 254.77,616.830002 252.68,622.990002 C252.044931,624.350061 251.249266,625.629169 250.31,626.800002 C247.93,626.890002 246.61,626.020002 246.16,624.070002 C244.757379,617.450157 245.01504,610.586064 246.91,604.090002 Z M314.91,617.450002 C312.5,620.670002 309.83,624.110002 307.29,627.650002 C306.51,628.740002 305,630.200002 306.67,631.410002 C308.34,632.620002 309.36,630.810002 310.23,629.650002 C312.99,625.940002 315.69,622.190002 318.52,618.320002 C325.86,618.320002 333.12,618.320002 340.39,618.320002 C341.79,618.320002 342.94,617.730002 342.9,616.140002 C342.86,614.550002 341.72,614.010002 340.31,614.040002 C337.6,614.040002 334.89,614.230002 332.18,614.260002 C327.56,614.260002 322.95,614.260002 318.26,614.260002 L317.26,613.130002 C313.56,608.990002 309.88,604.830002 306.14,600.720002 C305.24,599.720002 304.27,598.530002 302.26,599.800002 C302.447698,600.670684 302.760974,601.509455 303.19,602.290002 C307.03,607.320002 310.95,612.300002 314.95,617.450002 L314.91,617.450002 Z M100.44,619.770002 C101.231182,619.841665 102.025792,619.868374 102.82,619.850002 C108.37,619.670002 113.92,619.470002 119.16,619.290002 C123.16,622.650002 126.97,625.900002 130.83,629.100002 C132.02,630.100002 133.49,630.750002 134.73,629.380002 C135.97,628.010002 135.08,626.570002 133.93,625.600002 C131.76,623.770002 129.49,622.070002 127.22,620.370002 C126.22,619.640002 125.16,619.030002 124.05,618.310002 C124.77,616.770002 125.4,615.470002 125.98,614.140002 C127.69,610.270002 129.41,606.410002 131.04,602.500002 C131.42,601.560002 132.17,600.410002 130.61,599.350002 C130.002917,599.609798 129.444841,599.971702 128.96,600.420002 C128.130317,601.531408 127.381715,602.701097 126.72,603.920002 C124.79,607.380002 122.92,610.920002 121.03,614.330002 C116.81,614.660002 112.98,614.940002 109.16,615.260002 C106.16,615.510002 103.22,615.710002 100.28,616.180002 C99.3195146,616.391461 98.5236714,617.060268 98.15,617.970002 C97.91,619.420002 99.28,619.670002 100.44,619.770002 Z M141.83,600.770002 C144.38,600.990002 146.94,601.230002 149.66,601.480002 C149.66,602.190002 149.74,602.580002 149.73,602.960002 C149.5,611.490002 149.24,620.020002 149.02,628.550002 C149.02,630.050002 149.02,631.760002 151.02,631.790002 C153.02,631.820002 153.02,630.080002 153.18,628.610002 C153.18,628.480002 153.18,628.340002 153.18,628.210002 C153.18,621.256669 153.18,614.306669 153.18,607.360002 L153.18,601.680002 C156.18,601.680002 158.99,601.740002 161.82,601.680002 C163.12,601.680002 164.2,600.990002 164.13,599.500002 C164.120609,598.885866 163.850207,598.304769 163.386435,597.90207 C162.922663,597.49937 162.309382,597.313154 161.7,597.390002 C155.09,597.390002 148.47,597.310002 141.86,597.440002 C140.886421,597.58259 140.053016,598.212358 139.65,599.110002 C139.44,600.430002 140.71,600.720002 141.84,600.810002 L141.83,600.770002 Z M225.83,629.980002 C226.31,630.650002 227.06,631.460002 227.76,631.540002 C228.46,631.620002 229.18,630.740002 229.52,630.090002 C229.766331,629.336095 229.844831,628.537442 229.75,627.750002 C229.75,624.340002 229.75,620.930002 229.75,617.540002 C231.17,617.260002 232.29,617.080002 233.37,616.810002 C234.9,616.430002 236.44,615.960002 236.21,613.910002 C236.06,612.510002 234.65,611.970002 232.49,612.390002 C231.65,612.560002 230.83,612.770002 229.66,613.040002 C229.41,608.760002 229.16,604.730002 228.91,600.550002 C229.98,600.700002 230.83,600.870002 231.68,600.940002 C233.310979,601.150766 234.956472,601.22769 236.6,601.170002 C237.22,601.110002 238.25,600.170002 238.23,599.610002 C238.121423,598.753365 237.59773,598.005232 236.83,597.610002 C233.272929,596.739735 229.572141,596.630688 225.97,597.290002 C225.86,598.460002 225.66,599.550002 225.66,600.640002 C225.66,609.840002 225.66,619.040002 225.66,628.240002 C225.74,628.870002 225.59,629.610002 225.88,630.000002 L225.83,629.980002 Z M283.98,631.730002 C287.55,631.780002 291.11,631.800002 294.67,631.630002 C295.50334,631.429551 296.177659,630.819273 296.46,630.010002 C296.54,629.380002 295.72,628.530002 295.13,627.950002 C294.68189,627.668198 294.158928,627.528741 293.63,627.550002 C291.14,627.340002 288.63,627.170002 286.01,626.970002 C286.01,625.670002 286.01,624.420002 286.01,623.170002 C285.883333,615.836669 285.74,608.503336 285.58,601.170002 C285.58,599.930002 285.28,598.600002 283.69,598.650002 C282.1,598.700002 282.12,600.130002 282.1,601.340002 C282.02,607.880002 281.946667,614.426669 281.88,620.980002 C281.88,623.690002 281.83,626.400002 281.88,629.110002 C281.96,630.500002 282.44,631.740002 284.03,631.770002 L283.98,631.730002 Z M228.13,60.7100022 C224.98,58.4000022 221.7,58.7700022 218.13,59.5300022 C214.915844,60.1665075 212.039533,61.9420079 210.03,64.5300022 C207.368933,67.8776033 205.992739,72.0664813 206.15,76.3400022 L205.62,76.5000022 C206.49,79.4400022 207,82.5600022 208.32,85.2800022 C210.69,90.1900022 214.71,93.1700022 220.37,93.2800022 C226.03,93.3900022 229.94,90.5500022 232.64,85.9100022 C235.324054,81.4285274 236.101944,76.0589254 234.8,71.0000022 C233.902466,66.8728101 231.531073,63.2143951 228.13,60.7100022 L228.13,60.7100022 Z M227.52,85.2700022 C223.24,90.2700022 216.88,90.0200022 212.94,84.7800022 C208.3,78.6100022 209.17,68.8400022 214.94,64.0500022 C216.532634,62.9276239 218.22274,61.9503744 219.99,61.1300022 L220.37,61.6000022 C220.911466,61.9687159 221.49157,62.2772103 222.1,62.5200022 C227.38,63.9500022 229.87,67.8200022 230.75,72.8200022 C231.671964,77.246584 230.477678,81.8499462 227.52,85.2700022 L227.52,85.2700022 Z" id="Shape"></path>
        </g>
    </g>
</svg>